<svg width="124" height="22" viewBox="0 0 124 22" fill="none" xmlns="http://www.w3.org/2000/svg">
<path d="M2.848 4.984C2.068 4.984 1.42667 4.75867 0.924 4.308C0.438667 3.84 0.196 3.268 0.196 2.592C0.196 1.89867 0.438667 1.32667 0.924 0.875999C1.42667 0.407999 2.068 0.173998 2.848 0.173998C3.61067 0.173998 4.23467 0.407999 4.72 0.875999C5.22267 1.32667 5.474 1.89867 5.474 2.592C5.474 3.268 5.22267 3.84 4.72 4.308C4.23467 4.75867 3.61067 4.984 2.848 4.984ZM5.058 6.492V21H0.612V6.492H5.058ZM85.7992 4.984C85.0192 4.984 84.3778 4.75867 83.8752 4.308C83.3898 3.84 83.1472 3.268 83.1472 2.592C83.1472 1.89867 83.3898 1.32667 83.8752 0.875999C84.3778 0.407999 85.0192 0.173998 85.7992 0.173998C86.5618 0.173998 87.1858 0.407999 87.6712 0.875999C88.1738 1.32667 88.4252 1.89867 88.4252 2.592C88.4252 3.268 88.1738 3.84 87.6712 4.308C87.1858 4.75867 86.5618 4.984 85.7992 4.984ZM88.0092 6.492V21H83.5632V6.492H88.0092Z" fill="#E8244F"/>
<path d="M22.19 8.624C22.19 9.68133 21.9473 10.652 21.462 11.536C20.9766 12.4027 20.2313 13.1047 19.226 13.642C18.2206 14.1793 16.9726 14.448 15.482 14.448H12.726V21H8.27997V2.748H15.482C16.938 2.748 18.1686 2.99933 19.174 3.502C20.1793 4.00467 20.9333 4.698 21.436 5.582C21.9386 6.466 22.19 7.48 22.19 8.624ZM15.144 10.912C15.9933 10.912 16.626 10.7127 17.042 10.314C17.458 9.91533 17.666 9.352 17.666 8.624C17.666 7.896 17.458 7.33267 17.042 6.934C16.626 6.53533 15.9933 6.336 15.144 6.336H12.726V10.912H15.144ZM28.9506 1.76V21H24.5046V1.76H28.9506ZM31.2885 13.72C31.2885 12.2293 31.5659 10.9207 32.1205 9.794C32.6925 8.66733 33.4639 7.80067 34.4345 7.194C35.4052 6.58733 36.4885 6.284 37.6845 6.284C38.7072 6.284 39.5999 6.492 40.3625 6.908C41.1425 7.324 41.7405 7.87 42.1565 8.546V6.492H46.6025V21H42.1565V18.946C41.7232 19.622 41.1165 20.168 40.3365 20.584C39.5739 21 38.6812 21.208 37.6585 21.208C36.4799 21.208 35.4052 20.9047 34.4345 20.298C33.4639 19.674 32.6925 18.7987 32.1205 17.672C31.5659 16.528 31.2885 15.2107 31.2885 13.72ZM42.1565 13.746C42.1565 12.6367 41.8445 11.7613 41.2205 11.12C40.6139 10.4787 39.8685 10.158 38.9845 10.158C38.1005 10.158 37.3465 10.4787 36.7225 11.12C36.1159 11.744 35.8125 12.6107 35.8125 13.72C35.8125 14.8293 36.1159 15.7133 36.7225 16.372C37.3465 17.0133 38.1005 17.334 38.9845 17.334C39.8685 17.334 40.6139 17.0133 41.2205 16.372C41.8445 15.7307 42.1565 14.8553 42.1565 13.746ZM58.659 6.336C60.3577 6.336 61.7097 6.89067 62.715 8C63.7377 9.092 64.249 10.6 64.249 12.524V21H59.829V13.122C59.829 12.1513 59.5777 11.3973 59.075 10.86C58.5724 10.3227 57.8964 10.054 57.047 10.054C56.1977 10.054 55.5217 10.3227 55.019 10.86C54.5164 11.3973 54.265 12.1513 54.265 13.122V21H49.819V6.492H54.265V8.416C54.7157 7.77467 55.3224 7.272 56.085 6.908C56.8477 6.52667 57.7057 6.336 58.659 6.336ZM81.2486 8.624C81.2486 9.68133 81.0059 10.652 80.5206 11.536C80.0352 12.4027 79.2899 13.1047 78.2846 13.642C77.2792 14.1793 76.0312 14.448 74.5406 14.448H71.7846V21H67.3386V2.748H74.5406C75.9966 2.748 77.2272 2.99933 78.2326 3.502C79.2379 4.00467 79.9919 4.698 80.4946 5.582C80.9972 6.466 81.2486 7.48 81.2486 8.624ZM74.2026 10.912C75.0519 10.912 75.6846 10.7127 76.1006 10.314C76.5166 9.91533 76.7246 9.352 76.7246 8.624C76.7246 7.896 76.5166 7.33267 76.1006 6.934C75.6846 6.53533 75.0519 6.336 74.2026 6.336H71.7846V10.912H74.2026ZM95.6771 1.76V21H91.2311V1.76H95.6771ZM105.503 21.208C104.082 21.208 102.799 20.9047 101.655 20.298C100.528 19.6913 99.6358 18.8247 98.9771 17.698C98.3358 16.5713 98.0151 15.254 98.0151 13.746C98.0151 12.2553 98.3444 10.9467 99.0031 9.82C99.6618 8.676 100.563 7.80067 101.707 7.194C102.851 6.58733 104.134 6.284 105.555 6.284C106.976 6.284 108.259 6.58733 109.403 7.194C110.547 7.80067 111.448 8.676 112.107 9.82C112.766 10.9467 113.095 12.2553 113.095 13.746C113.095 15.2367 112.757 16.554 112.081 17.698C111.422 18.8247 110.512 19.6913 109.351 20.298C108.207 20.9047 106.924 21.208 105.503 21.208ZM105.503 17.36C106.352 17.36 107.072 17.048 107.661 16.424C108.268 15.8 108.571 14.9073 108.571 13.746C108.571 12.5847 108.276 11.692 107.687 11.068C107.115 10.444 106.404 10.132 105.555 10.132C104.688 10.132 103.969 10.444 103.397 11.068C102.825 11.6747 102.539 12.5673 102.539 13.746C102.539 14.9073 102.816 15.8 103.371 16.424C103.943 17.048 104.654 17.36 105.503 17.36ZM123.54 17.23V21H121.278C119.666 21 118.409 20.61 117.508 19.83C116.606 19.0327 116.156 17.7413 116.156 15.956V10.184H114.388V6.492H116.156V2.956H120.602V6.492H123.514V10.184H120.602V16.008C120.602 16.4413 120.706 16.7533 120.914 16.944C121.122 17.1347 121.468 17.23 121.954 17.23H123.54Z" fill="#002742"/>
</svg>
