<svg width="80" height="64" viewBox="0 0 80 64" fill="none" xmlns="http://www.w3.org/2000/svg">
<rect width="80" height="64" fill="white"/>
<path d="M53.8391 23.9661C52.4138 21.5219 50.4828 19.6209 48.046 18.1726C45.6092 16.7242 42.9425 16 40 16C37.0575 16 34.3908 16.7242 31.954 18.1726C29.5172 19.6209 27.5862 21.5672 26.1609 23.9661C24.7356 26.4102 24 29.0806 24 32.0226C24 34.9646 24.7356 37.6351 26.1609 40.0792C27.5862 42.5233 29.5172 44.4243 31.954 45.8727C34.3908 47.3211 37.0575 48 40 48C42.9425 48 45.6092 47.2758 48.046 45.8727C50.4828 44.4243 52.4138 42.5233 53.8391 40.0792C55.2644 37.6351 56 34.9646 56 32.0226C56 29.0806 55.2644 26.3649 53.8391 23.9661ZM49.7471 27.0438C47.7241 25.1881 44.7356 24.4639 41.977 25.4597C38.069 26.8628 36.046 31.1174 37.4713 34.9646C37.5632 35.1457 37.4253 35.372 37.2414 35.4625C37.0575 35.553 36.8276 35.4173 36.7356 35.2362C35.1724 30.9816 37.3793 26.2744 41.7011 24.7355C44.4598 23.7397 47.4023 24.2829 49.5632 25.9123C49.6552 26.2744 49.7011 26.6365 49.7471 27.0438ZM49.3333 24.9618C47.8621 24.0566 46.1609 23.5587 44.4138 23.5587C43.6782 23.5587 42.8966 23.6492 42.1609 23.8303C41.8391 23.9208 41.6092 23.5587 41.7471 23.2871C41.7931 23.1966 41.8851 23.1513 41.977 23.1061C44.3218 22.5177 46.7586 22.8345 48.8276 23.8303C49.0115 24.1924 49.1954 24.5545 49.3333 24.9618ZM43.4023 20.1188C43.8161 20.1188 44.2759 20.1641 44.6897 20.2093C44.8736 20.2999 45.1034 20.3904 45.2873 20.4809C45.6092 20.662 45.8851 20.7977 46.1149 20.9788C45.3793 20.843 44.5977 20.7525 43.8161 20.7525C43.4943 20.7525 43.2644 20.3904 43.4023 20.1188ZM42.8966 21.4767C43.8161 21.3409 44.7356 21.2956 45.6552 21.3861C46.1609 21.4314 46.6667 21.5219 47.1724 21.6124C47.4483 21.8388 47.7241 22.1103 47.954 22.4272C48.046 22.5177 48.092 22.6082 48.1839 22.6987C46.5287 22.1103 44.7356 21.9293 43.0345 22.2008C42.7126 22.2461 42.4828 21.9293 42.6207 21.6577C42.6667 21.5672 42.7586 21.4767 42.8966 21.4767ZM42.6667 19.4851C42.5747 19.4851 42.5287 19.4851 42.4368 19.4399C42.5287 19.4399 42.5747 19.4399 42.6667 19.4851ZM37.4253 19.5304C37.3333 19.5757 37.2414 19.6209 37.1494 19.5757C37.2414 19.5757 37.3333 19.5757 37.4253 19.5304ZM34.3908 20.662C34.6667 20.5262 34.9885 20.3904 35.2644 20.2546C34.8966 20.7525 34.3448 21.0693 33.7471 21.1146C34.1149 20.7977 34.3908 20.662 34.3908 20.662ZM32.9655 21.7935C34.2069 22.1103 35.4942 21.5672 36.0919 20.3904C36.1839 20.2093 36.4138 20.1188 36.6437 20.2093C36.8276 20.2999 36.9195 20.5262 36.8276 20.7525C36 22.3366 34.069 23.0156 32.4138 22.4272C32.5977 22.2008 32.7816 22.0198 32.9655 21.7935ZM31.954 23.1061C34.023 23.9661 36.4598 23.1513 37.5172 21.1146L38.4828 19.3041C38.8046 19.2588 39.1264 19.2136 39.4483 19.1683L38.2069 21.4767C36.9655 23.8303 34.023 24.826 31.5862 23.785C31.6782 23.5587 31.8161 23.3324 31.954 23.1061ZM30.9885 26.0934C32.2299 26.546 33.5632 26.6818 34.8506 26.4554C35.2184 26.4102 35.5862 26.3197 35.954 26.1839C37.5632 25.686 39.0345 24.5997 40 23.1061C40.0919 22.925 40.2299 22.744 40.3218 22.5629L40.5977 22.0651L41.2414 20.7977C41.3333 20.6167 41.2874 20.3904 41.0575 20.2546C40.8736 20.1641 40.6437 20.2093 40.5057 20.4356L39.5862 22.2008C39.5402 22.2914 39.4483 22.4272 39.4023 22.5177C38.5287 24.0113 37.1034 25.0071 35.5402 25.4597C34.1149 25.867 32.5517 25.8218 31.0805 25.2334C31.1264 24.9618 31.2184 24.7355 31.2644 24.4639C34.1149 25.6407 37.4253 24.5092 38.8965 21.7935L39.8161 20.0283C40.1379 19.4399 40.8276 19.2136 41.4253 19.5304C42.023 19.8472 42.2529 20.5262 41.931 21.1146L41.6552 21.6577L41.1494 22.6082L41.0115 22.8798C39.8161 25.1429 37.6552 26.6365 35.2644 27.1344C34.9425 27.1796 34.6207 27.2249 34.2988 27.2702C33.1954 27.3607 32.046 27.2249 30.9425 26.8628V26.8175C30.9885 26.5912 30.9885 26.3649 30.9885 26.0934ZM29.4253 33.5615L28.9655 33.1994C28.6896 32.9731 28.5977 32.5658 28.7816 32.2489L29.5172 31.1174C29.3793 31.9321 29.3333 32.7468 29.4253 33.5615ZM32.8736 40.0339C32.4598 39.9887 32.0919 39.7171 31.954 39.3098L30.9885 36.9562C30.023 34.6478 29.8391 32.2489 30.2529 29.9406L30.8046 29.1259C31.0805 28.7185 31.1724 28.2207 31.0805 27.7228C31.1264 27.6775 31.1264 27.6775 31.1724 27.6322C31.4483 27.7228 31.5862 27.9943 31.4942 28.2207C30.5747 30.8911 30.5747 33.8331 31.7241 36.6393L33.1034 39.9887C33.0115 40.0792 32.9655 40.0339 32.8736 40.0339ZM33.8391 40.2603L32.4138 36.7751C31.2644 33.9236 31.2644 30.8911 32.2299 28.2207C32.2759 28.0849 32.4598 27.9491 32.5977 27.9943C32.8276 28.0396 33.0115 28.2659 32.9195 28.4922C32 31.0269 32 33.8784 33.1034 36.5488L34.9885 41.1202C34.6667 40.6676 34.2988 40.396 33.8391 40.2603ZM36.5517 44.7412C36.4598 44.2433 36.3218 43.8359 36.1839 43.4286C36.5057 43.8812 36.8276 44.3338 37.1954 44.7412H36.5517ZM38.1149 44.7412C37.1954 43.7907 36.4598 42.6591 35.954 41.3918L33.8851 36.413C32.7816 33.7426 32.8276 30.8006 33.931 28.1301C34.023 28.0396 34.1149 27.9943 34.2069 27.9491C34.2529 27.9491 34.2529 27.9491 34.2988 27.9491C34.5747 27.9491 34.7586 28.1754 34.6207 28.4017C33.5632 30.8911 33.5172 33.6068 34.5287 36.1414L36.5977 41.1202C37.1494 42.5233 38.023 43.7454 39.1264 44.7412H38.1149ZM40.7356 44.7412C39.0345 43.6549 37.7012 42.0707 36.9195 40.215L35.2644 36.1867C34.1149 33.3805 34.3908 30.3479 35.7701 27.8586C35.8161 27.768 35.908 27.7228 36 27.6775C36.3218 27.587 36.5977 27.9038 36.4138 28.2207C35.1264 30.4837 34.8506 33.3352 35.954 35.9151L37.6092 39.9434C38.4828 42.116 40.1839 43.8359 42.3448 44.7864H40.7356V44.7412ZM44.5057 44.7412C41.6552 44.017 39.2184 42.0255 38.1609 39.1287L37.2414 36.6846C37.1494 36.5035 37.2873 36.2772 37.4713 36.1867C37.7011 36.0962 37.8851 36.232 37.977 36.413L38.8965 38.8571C40.1839 42.297 43.5862 44.4243 47.1724 44.2433C47.2644 44.5601 47.3563 44.7412 47.3563 44.7412H44.5057ZM46.9885 35.5983L45.6552 32.0226C45.4253 31.4342 44.7356 31.1174 44.1379 31.3437C43.5402 31.57 43.2184 32.2489 43.4483 32.8373L44.8736 36.7298C45.1494 37.4088 45.7471 37.8614 46.4368 37.9972C46.3908 38.2687 46.3908 38.5403 46.3908 38.7666C45.4253 38.6308 44.5057 37.9972 44.1839 37.0014L42.7586 33.1089C42.3908 32.1132 42.8965 30.9816 43.954 30.6195C44.9655 30.2574 46.1149 30.7553 46.4828 31.7963L47.5402 34.6478C47.3103 34.9194 47.1264 35.2815 46.9885 35.5983ZM46.5287 37.2277C46.1149 37.1825 45.7471 36.8656 45.6092 36.4583L44.1839 32.5658C44.0919 32.3847 44.2299 32.1584 44.4138 32.0679C44.5977 31.9774 44.8276 32.1132 44.9195 32.2942L46.3448 36.1867C46.3908 36.3225 46.5287 36.413 46.7126 36.4583C46.6667 36.6846 46.6207 36.9562 46.5287 37.2277ZM46.5747 41.8897C44.1839 41.8444 42.023 40.3508 41.1494 38.0424C41.0575 37.8614 41.1954 37.6351 41.3793 37.5446C41.6092 37.454 41.7931 37.5898 41.8851 37.7709C42.6207 39.7171 44.4598 40.9844 46.4368 41.075C46.5287 41.3918 46.5287 41.6634 46.5747 41.8897ZM47.1724 31.4795C46.6667 30.0764 45.0575 29.3522 43.6322 29.8501C42.2069 30.3479 41.4713 31.9321 41.977 33.3352L43.4023 37.2277C43.8621 38.5403 45.0575 39.355 46.3448 39.5361C46.3448 39.8076 46.3448 40.0792 46.3908 40.3055C44.7356 40.1697 43.2644 39.1287 42.6667 37.4993L41.2414 33.6068C40.5517 31.7963 41.5172 29.7595 43.3563 29.1259C45.1954 28.447 47.2644 29.3975 47.954 31.2079C48.046 31.389 47.908 31.6153 47.7241 31.7058C47.4483 31.7963 47.2644 31.7058 47.1724 31.4795ZM48.2759 33.3805C48.1839 33.5163 48.092 33.6068 48 33.7426L47.7241 32.9731C47.6322 32.7921 47.7701 32.5658 47.954 32.4753C48.1379 32.3847 48.3678 32.5205 48.4598 32.7016L48.5517 32.9279C48.4598 33.0637 48.3678 33.1994 48.2759 33.3805ZM49.0115 31.8868L48.6437 30.9364C47.8161 28.7185 45.3333 27.587 43.0345 28.3564C40.7816 29.1711 39.5862 31.6153 40.4138 33.8331L41.3793 36.413C41.4713 36.5941 41.3333 36.8204 41.1494 36.9109C40.9655 37.0014 40.7356 36.8656 40.6437 36.6846L39.6782 34.1047C38.7126 31.4795 40.0919 28.5827 42.7586 27.587C45.4253 26.6365 48.4138 27.9943 49.3793 30.6195C49.2874 31.0721 49.1494 31.4795 49.0115 31.8868ZM49.7011 29.4427C48.2759 27.0438 45.2873 25.9576 42.5287 26.9081C39.4483 27.9943 37.8391 31.389 38.9885 34.4215L40.4138 38.314C41.4253 40.9844 44 42.6591 46.7586 42.6591C46.8046 42.9307 46.8965 43.2023 46.9425 43.4286C43.7701 43.5191 40.7816 41.6181 39.6782 38.5403L38.2529 34.6478C36.9655 31.2079 38.8046 27.4059 42.2988 26.1386C45.0575 25.1429 48.092 26.0481 49.8391 28.1754C49.7931 28.628 49.7471 29.0354 49.7011 29.4427Z" fill="#002742"/>
</svg>
