<svg width="48" height="48" viewBox="0 0 48 48" fill="none" xmlns="http://www.w3.org/2000/svg">
<rect width="48" height="48" rx="12" fill="white"/>
<path d="M14 24C14 19.286 14 16.9289 15.4645 15.4645C16.9289 14 19.286 14 24 14C28.714 14 31.0711 14 32.5355 15.4645C34 16.9289 34 19.286 34 24C34 28.714 34 31.0711 32.5355 32.5355C31.0711 34 28.714 34 24 34C19.286 34 16.9289 34 15.4645 32.5355C14 31.0711 14 28.714 14 24Z" stroke="#8A9CA8" stroke-width="1.5"/>
<path d="M19 26L20.7969 23.8437C21.5089 22.9893 21.865 22.562 22.3333 22.562C22.8017 22.562 23.1577 22.9893 23.8698 23.8437L24.1302 24.1563C24.8423 25.0107 25.1983 25.438 25.6667 25.438C26.135 25.438 26.4911 25.0107 27.2031 24.1563L29 22" stroke="#8A9CA8" stroke-width="1.5" stroke-linecap="round"/>
</svg>
