<svg width="48" height="48" viewBox="0 0 48 48" fill="none" xmlns="http://www.w3.org/2000/svg">
<rect width="48" height="48" rx="16" fill="white"/>
<path fill-rule="evenodd" clip-rule="evenodd" d="M13.75 18.5C13.75 15.8766 15.8766 13.75 18.5 13.75C21.1234 13.75 23.25 15.8766 23.25 18.5V21.1667C23.25 21.1879 23.25 21.2093 23.2501 21.2308C23.2506 21.4734 23.2511 21.7264 23.1904 21.9529C23.0286 22.5568 22.5568 23.0286 21.9529 23.1904C21.7264 23.2511 21.4734 23.2506 21.2308 23.2501C21.2093 23.25 21.1879 23.25 21.1667 23.25H18.5C15.8766 23.25 13.75 21.1234 13.75 18.5ZM18.5 15.25C16.7051 15.25 15.25 16.7051 15.25 18.5C15.25 20.2949 16.7051 21.75 18.5 21.75H21.1667C21.3285 21.75 21.4248 21.7498 21.4971 21.7465C21.5427 21.7444 21.5623 21.7416 21.5671 21.7408C21.6514 21.7173 21.7173 21.6514 21.7408 21.5671C21.7416 21.5623 21.7444 21.5427 21.7465 21.4971C21.7498 21.4248 21.75 21.3285 21.75 21.1667V18.5C21.75 16.7051 20.2949 15.25 18.5 15.25Z" fill="#8A9CA8"/>
<path fill-rule="evenodd" clip-rule="evenodd" d="M26.7692 24.7499C26.7907 24.75 26.8121 24.75 26.8333 24.75H29.5C32.1234 24.75 34.25 26.8766 34.25 29.5C34.25 32.1234 32.1234 34.25 29.5 34.25C26.8766 34.25 24.75 32.1234 24.75 29.5V26.8333C24.75 26.8121 24.75 26.7907 24.7499 26.7692C24.7494 26.5266 24.7489 26.2736 24.8096 26.0471C24.9714 25.4432 25.4432 24.9714 26.0471 24.8096C26.2736 24.7489 26.5266 24.7494 26.7692 24.7499ZM26.4329 26.2592C26.3486 26.2827 26.2827 26.3486 26.2592 26.4329C26.2584 26.4377 26.2556 26.4573 26.2535 26.5029C26.2502 26.5752 26.25 26.6715 26.25 26.8333V29.5C26.25 31.2949 27.7051 32.75 29.5 32.75C31.2949 32.75 32.75 31.2949 32.75 29.5C32.75 27.7051 31.2949 26.25 29.5 26.25H26.8333C26.6715 26.25 26.5752 26.2502 26.5029 26.2535C26.4573 26.2556 26.4377 26.2584 26.4329 26.2592Z" fill="#8A9CA8"/>
<path fill-rule="evenodd" clip-rule="evenodd" d="M21.4957 26.2611C21.3666 26.2506 21.1924 26.25 20.9 26.25H18.5C16.7051 26.25 15.25 27.7051 15.25 29.5C15.25 31.2949 16.7051 32.75 18.5 32.75C20.2949 32.75 21.75 31.2949 21.75 29.5V27.1C21.75 26.8076 21.7494 26.6334 21.7389 26.5043C21.7324 26.4255 21.7239 26.3923 21.7212 26.3835C21.6977 26.3388 21.6612 26.3023 21.6165 26.2788C21.6077 26.2761 21.5745 26.2676 21.4957 26.2611ZM21.6191 26.2797L21.6176 26.2792ZM21.7203 26.3809L21.7208 26.3824ZM21.6179 24.7661C21.831 24.7835 22.0642 24.8234 22.2945 24.9407C22.6238 25.1085 22.8915 25.3762 23.0593 25.7055C23.1766 25.9358 23.2165 26.169 23.2339 26.3821C23.25 26.5798 23.25 26.8163 23.25 27.0738L23.25 29.5C23.25 32.1234 21.1234 34.25 18.5 34.25C15.8766 34.25 13.75 32.1234 13.75 29.5C13.75 26.8766 15.8766 24.75 18.5 24.75L20.9262 24.75C21.1837 24.75 21.4202 24.75 21.6179 24.7661Z" fill="#8A9CA8"/>
<path fill-rule="evenodd" clip-rule="evenodd" d="M24.75 18.5C24.75 15.8766 26.8766 13.75 29.5 13.75C32.1234 13.75 34.25 15.8766 34.25 18.5C34.25 21.1234 32.1234 23.25 29.5 23.25H26.6429C26.6337 23.25 26.6246 23.25 26.6154 23.25C26.5114 23.2501 26.4035 23.2502 26.3041 23.239C25.4927 23.1476 24.8524 22.5073 24.761 21.6959C24.7498 21.5965 24.7499 21.4886 24.75 21.3846C24.75 21.3754 24.75 21.3663 24.75 21.3571V18.5ZM29.5 15.25C27.7051 15.25 26.25 16.7051 26.25 18.5V21.3571C26.25 21.4264 26.25 21.4676 26.2506 21.4987C26.251 21.5185 26.2516 21.5271 26.2517 21.5292C26.2652 21.6441 26.3559 21.7348 26.4708 21.7483C26.4729 21.7484 26.4815 21.749 26.5013 21.7494C26.5324 21.75 26.5736 21.75 26.6429 21.75H29.5C31.2949 21.75 32.75 20.2949 32.75 18.5C32.75 16.7051 31.2949 15.25 29.5 15.25Z" fill="#8A9CA8"/>
</svg>
