<svg width="48" height="48" viewBox="0 0 48 48" fill="none" xmlns="http://www.w3.org/2000/svg">
<rect width="48" height="48" rx="12" fill="white"/>
<path d="M14 24C14 20.2288 14 18.3431 15.1716 17.1716C16.3431 16 18.2288 16 22 16H26C29.7712 16 31.6569 16 32.8284 17.1716C34 18.3431 34 20.2288 34 24V26C34 29.7712 34 31.6569 32.8284 32.8284C31.6569 34 29.7712 34 26 34H22C18.2288 34 16.3431 34 15.1716 32.8284C14 31.6569 14 29.7712 14 26V24Z" stroke="#8A9CA8" stroke-width="1.5"/>
<path d="M19 16V14.5" stroke="#8A9CA8" stroke-width="1.5" stroke-linecap="round"/>
<path d="M29 16V14.5" stroke="#B6B6B6" stroke-width="1.5" stroke-linecap="round"/>
<path d="M14.5 21H33.5" stroke="#B6B6B6" stroke-width="1.5" stroke-linecap="round"/>
<path d="M30 29C30 29.5523 29.5523 30 29 30C28.4477 30 28 29.5523 28 29C28 28.4477 28.4477 28 29 28C29.5523 28 30 28.4477 30 29Z" fill="#B6B6B6"/>
<path d="M30 25C30 25.5523 29.5523 26 29 26C28.4477 26 28 25.5523 28 25C28 24.4477 28.4477 24 29 24C29.5523 24 30 24.4477 30 25Z" fill="#B6B6B6"/>
<path d="M25 29C25 29.5523 24.5523 30 24 30C23.4477 30 23 29.5523 23 29C23 28.4477 23.4477 28 24 28C24.5523 28 25 28.4477 25 29Z" fill="#B6B6B6"/>
<path d="M25 25C25 25.5523 24.5523 26 24 26C23.4477 26 23 25.5523 23 25C23 24.4477 23.4477 24 24 24C24.5523 24 25 24.4477 25 25Z" fill="#B6B6B6"/>
<path d="M20 29C20 29.5523 19.5523 30 19 30C18.4477 30 18 29.5523 18 29C18 28.4477 18.4477 28 19 28C19.5523 28 20 28.4477 20 29Z" fill="#B6B6B6"/>
<path d="M20 25C20 25.5523 19.5523 26 19 26C18.4477 26 18 25.5523 18 25C18 24.4477 18.4477 24 19 24C19.5523 24 20 24.4477 20 25Z" fill="#B6B6B6"/>
</svg>
