<svg width="48" height="48" viewBox="0 0 48 48" fill="none" xmlns="http://www.w3.org/2000/svg">
<rect width="48" height="48" rx="12" fill="white"/>
<path d="M16.9788 21.6851C14.9929 20.8907 14 20.4935 14 20C14 19.5065 14.9929 19.1093 16.9788 18.3149L19.7873 17.1915C21.7732 16.3972 22.7661 16 24 16C25.2339 16 26.2268 16.3972 28.2127 17.1915L31.0212 18.3149C33.0071 19.1093 34 19.5065 34 20C34 20.4935 33.0071 20.8907 31.0212 21.6851L28.2127 22.8085C26.2268 23.6028 25.2339 24 24 24C22.7661 24 21.7732 23.6028 19.7873 22.8085L16.9788 21.6851Z" stroke="#8A9CA8" stroke-width="1.5"/>
<path d="M17.7661 22L16.9788 22.3149C14.9929 23.1093 14 23.5065 14 24C14 24.4935 14.9929 24.8907 16.9788 25.6851L19.7873 26.8085C21.7732 27.6028 22.7661 28 24 28C25.2339 28 26.2268 27.6028 28.2127 26.8085L31.0212 25.6851C33.0071 24.8907 34 24.4935 34 24C34 23.5065 33.0071 23.1093 31.0212 22.3149L30.2339 22" stroke="#8A9CA8" stroke-width="1.5"/>
<path d="M17.7661 26L16.9788 26.3149C14.9929 27.1093 14 27.5065 14 28C14 28.4935 14.9929 28.8907 16.9788 29.6851L19.7873 30.8085C21.7732 31.6028 22.7661 32 24 32C25.2339 32 26.2268 31.6028 28.2127 30.8085L31.0212 29.6851C33.0071 28.8907 34 28.4935 34 28C34 27.5065 33.0071 27.1093 31.0212 26.3149L30.2339 26" stroke="#8A9CA8" stroke-width="1.5"/>
</svg>
