<svg width="48" height="48" viewBox="0 0 48 48" fill="none" xmlns="http://www.w3.org/2000/svg">
<rect width="48" height="48" rx="12" fill="white"/>
<path d="M14 29.5C14 28.5654 14 28.0981 14.201 27.75C14.3326 27.522 14.522 27.3326 14.75 27.201C15.0981 27 15.5654 27 16.5 27C17.4346 27 17.9019 27 18.25 27.201C18.478 27.3326 18.6674 27.522 18.799 27.75C19 28.0981 19 28.5654 19 29.5C19 30.4346 19 30.9019 18.799 31.25C18.6674 31.478 18.478 31.6674 18.25 31.799C17.9019 32 17.4346 32 16.5 32C15.5654 32 15.0981 32 14.75 31.799C14.522 31.6674 14.3326 31.478 14.201 31.25C14 30.9019 14 30.4346 14 29.5Z" stroke="#8A9CA8" stroke-width="1.5"/>
<path d="M21.5 29.5C21.5 28.5654 21.5 28.0981 21.701 27.75C21.8326 27.522 22.022 27.3326 22.25 27.201C22.5981 27 23.0654 27 24 27C24.9346 27 25.4019 27 25.75 27.201C25.978 27.3326 26.1674 27.522 26.299 27.75C26.5 28.0981 26.5 28.5654 26.5 29.5C26.5 30.4346 26.5 30.9019 26.299 31.25C26.1674 31.478 25.978 31.6674 25.75 31.799C25.4019 32 24.9346 32 24 32C23.0654 32 22.5981 32 22.25 31.799C22.022 31.6674 21.8326 31.478 21.701 31.25C21.5 30.9019 21.5 30.4346 21.5 29.5Z" stroke="#8A9CA8" stroke-width="1.5"/>
<path d="M29 29.5C29 28.5654 29 28.0981 29.201 27.75C29.3326 27.522 29.522 27.3326 29.75 27.201C30.0981 27 30.5654 27 31.5 27C32.4346 27 32.9019 27 33.25 27.201C33.478 27.3326 33.6674 27.522 33.799 27.75C34 28.0981 34 28.5654 34 29.5C34 30.4346 34 30.9019 33.799 31.25C33.6674 31.478 33.478 31.6674 33.25 31.799C32.9019 32 32.4346 32 31.5 32C30.5654 32 30.0981 32 29.75 31.799C29.522 31.6674 29.3326 31.478 29.201 31.25C29 30.9019 29 30.4346 29 29.5Z" stroke="#8A9CA8" stroke-width="1.5"/>
<path d="M26 16H21C18.643 16 17.4645 16 16.7322 16.7322C16 17.4645 16 18.643 16 21V24M16 24L14 22M16 24L18 22" stroke="#8A9CA8" stroke-width="1.5" stroke-linecap="round" stroke-linejoin="round"/>
<path d="M21.5 16H26.5C28.857 16 30.0355 16 30.7678 16.7322C31.5 17.4645 31.5 18.643 31.5 21V24M31.5 24L33.5 22M31.5 24L29.5 22" stroke="#8A9CA8" stroke-width="1.5" stroke-linecap="round" stroke-linejoin="round"/>
<path d="M24 23.9999V20.9999C24 18.6429 24 17 24 16.5M24 23.9999L26 21.9999M24 23.9999L22 21.9999" stroke="#8A9CA8" stroke-width="1.5" stroke-linecap="round" stroke-linejoin="round"/>
</svg>
