<svg width="48" height="48" viewBox="0 0 48 48" fill="none" xmlns="http://www.w3.org/2000/svg">
<rect width="48" height="48" rx="12" fill="white"/>
<path d="M30.18 20.0393L30.6435 19.5759C31.4113 18.808 32.6563 18.808 33.4241 19.5759C34.192 20.3437 34.192 21.5887 33.4241 22.3565L32.9607 22.82M30.18 20.0393C30.18 20.0393 30.238 21.0241 31.1069 21.8931C31.9759 22.762 32.9607 22.82 32.9607 22.82M30.18 20.0393L25.9194 24.2999C25.6308 24.5885 25.4865 24.7328 25.3624 24.8919C25.2161 25.0796 25.0906 25.2827 24.9882 25.4975C24.9014 25.6797 24.8368 25.8732 24.7078 26.2604L24.2946 27.5L24.1609 27.901M32.9607 22.82L28.7001 27.0806C28.4115 27.3692 28.2672 27.5135 28.1081 27.6376C27.9204 27.7839 27.7173 27.9094 27.5025 28.0118C27.3203 28.0986 27.1268 28.1632 26.7396 28.2922L25.5 28.7054L25.099 28.8391M25.099 28.8391L24.6979 28.9728C24.5074 29.0363 24.2973 28.9867 24.1553 28.8447C24.0133 28.7027 23.9637 28.4926 24.0272 28.3021L24.1609 27.901M25.099 28.8391L24.1609 27.901" stroke="#8A9CA8" stroke-width="1.5"/>
<path d="M20 25H22.5" stroke="#8A9CA8" stroke-width="1.5" stroke-linecap="round"/>
<path d="M20 21H26.5" stroke="#8A9CA8" stroke-width="1.5" stroke-linecap="round"/>
<path d="M20 29H21.5" stroke="#8A9CA8" stroke-width="1.5" stroke-linecap="round"/>
<path d="M31.8284 15.1716C30.6569 14 28.7712 14 25 14H23C19.2288 14 17.3431 14 16.1716 15.1716C15 16.3431 15 18.2288 15 22V26C15 29.7712 15 31.6569 16.1716 32.8284C17.3431 34 19.2288 34 23 34H25C28.7712 34 30.6569 34 31.8284 32.8284C32.7715 31.8853 32.9554 30.4796 32.9913 28" stroke="#8A9CA8" stroke-width="1.5" stroke-linecap="round"/>
</svg>
