<svg width="48" height="48" viewBox="0 0 48 48" fill="none" xmlns="http://www.w3.org/2000/svg">
<rect width="48" height="48" rx="12" fill="white"/>
<circle cx="22" cy="18" r="4" stroke="#8A9CA8" stroke-width="1.5"/>
<path d="M30 29.5C30 31.9853 30 34 22 34C14 34 14 31.9853 14 29.5C14 27.0147 17.5817 25 22 25C26.4183 25 30 27.0147 30 29.5Z" stroke="#8A9CA8" stroke-width="1.5"/>
<path d="M30.0429 24.3656L30.4865 23.7609L30.4865 23.7609L30.0429 24.3656ZM31 20.6913L30.4813 21.2331C30.7713 21.5108 31.2287 21.5108 31.5187 21.2331L31 20.6913ZM31.9571 24.3656L31.5135 23.7609L31.5135 23.7609L31.9571 24.3656ZM31 24.8276L31 25.5776H31L31 24.8276ZM30.4865 23.7609C30.0686 23.4542 29.6081 23.0712 29.2595 22.6681C28.8912 22.2423 28.75 21.9113 28.75 21.6967H27.25C27.25 22.4666 27.6912 23.1479 28.1249 23.6493C28.5782 24.1735 29.1391 24.6327 29.5992 24.9703L30.4865 23.7609ZM28.75 21.6967C28.75 21.1207 29.0126 20.87 29.2419 20.7896C29.4922 20.7019 29.9558 20.7299 30.4813 21.2331L31.5187 20.1496C30.6943 19.3603 29.6579 19.0543 28.7457 19.3741C27.8125 19.7012 27.25 20.5995 27.25 21.6967H28.75ZM32.4008 24.9703C32.8609 24.6327 33.4218 24.1735 33.8751 23.6493C34.3088 23.1479 34.75 22.4666 34.75 21.6967H33.25C33.25 21.9113 33.1088 22.2424 32.7405 22.6681C32.3919 23.0713 31.9314 23.4542 31.5135 23.7609L32.4008 24.9703ZM34.75 21.6967C34.75 20.5995 34.1875 19.7012 33.2543 19.3741C32.3421 19.0543 31.3057 19.3603 30.4813 20.1496L31.5187 21.2331C32.0442 20.7299 32.5078 20.7019 32.7581 20.7896C32.9874 20.87 33.25 21.1207 33.25 21.6967H34.75ZM29.5992 24.9703C29.9678 25.2407 30.3816 25.5776 31 25.5776L31 24.0776C30.9756 24.0776 30.9605 24.0775 30.9061 24.0488C30.8202 24.0034 30.7128 23.9269 30.4865 23.7609L29.5992 24.9703ZM31.5135 23.7609C31.2872 23.9269 31.1798 24.0034 31.0939 24.0488C31.0395 24.0775 31.0244 24.0776 31 24.0776L31 25.5776C31.6184 25.5776 32.0322 25.2407 32.4008 24.9703L31.5135 23.7609Z" fill="#8A9CA8"/>
</svg>
