<svg width="48" height="48" viewBox="0 0 48 48" fill="none" xmlns="http://www.w3.org/2000/svg">
<rect width="48" height="48" rx="12" fill="white"/>
<path d="M20.2583 33.221C18.8684 31.2375 18.0508 28.8243 18.0508 26.2187C18.0508 22.8443 20.7847 20.1094 24.1571 20.1094C27.5294 20.1094 30.2633 22.8443 30.2633 26.2187" stroke="#8A9CA8" stroke-width="1.5" stroke-linecap="round" stroke-linejoin="round"/>
<path d="M30.4361 32.3118C30.3262 32.3179 30.2182 32.3281 30.1073 32.3281C26.7349 32.3281 24.001 29.5931 24.001 26.2188" stroke="#8A9CA8" stroke-width="1.5" stroke-linecap="round" stroke-linejoin="round"/>
<path d="M25.4276 33.9999C22.8332 32.382 21.1053 29.5024 21.1053 26.2187C21.1053 24.5315 22.4727 23.164 24.1589 23.164C25.8451 23.164 27.2126 24.5315 27.2126 26.2187C27.2126 27.9059 28.58 29.2733 30.2662 29.2733C31.9524 29.2733 33.3198 27.9059 33.3198 26.2187C33.3198 21.1571 29.2184 17.0547 24.1599 17.0547C19.1014 17.0547 15 21.1571 15 26.2187C15 27.3469 15.1263 28.4455 15.3584 29.5045" stroke="#8A9CA8" stroke-width="1.5" stroke-linecap="round" stroke-linejoin="round"/>
<path d="M32.684 17.8631C30.6017 15.4978 27.5572 14 24.1584 14C20.7596 14 17.7151 15.4978 15.6328 17.8631" stroke="#8A9CA8" stroke-width="1.5" stroke-linecap="round" stroke-linejoin="round"/>
</svg>
