<svg width="1440" height="1024" viewBox="0 0 1440 1024" fill="none" xmlns="http://www.w3.org/2000/svg">
<rect width="1440" height="1024" fill="#F0F9FF"/>
<ellipse cx="19.9947" cy="19.6357" rx="19.9947" ry="19.6357" transform="matrix(-1 0 0 1 510.864 712.775)" fill="#75C8FF" fill-opacity="0.2"/>
<ellipse cx="19.9947" cy="19.6357" rx="19.9947" ry="19.6357" transform="matrix(-1 0 0 1 625.833 0)" fill="#75C8FF" fill-opacity="0.2"/>
<rect width="8.9976" height="8.83605" transform="matrix(-1 0 0 1 381.898 181.63)" fill="#75C8FF" fill-opacity="0.2"/>
<rect width="8.9976" height="8.83605" transform="matrix(-1 0 0 1 651.826 545.872)" fill="#75C8FF" fill-opacity="0.2"/>
<rect width="8.9976" height="8.83605" transform="matrix(-1 0 0 1 76.9792 469.292)" fill="#75C8FF" fill-opacity="0.2"/>
<rect width="8.9976" height="8.83605" transform="matrix(-1 0 0 1 709.811 69.7065)" fill="#75C8FF" fill-opacity="0.2"/>
<rect width="8.9976" height="8.83605" transform="matrix(-1 0 0 1 134.964 29.4536)" fill="#75C8FF" fill-opacity="0.2"/>
<rect width="33.1833" height="32.5875" transform="matrix(-1 8.58531e-08 8.90211e-08 1 217.507 80.7104)" fill="#75C8FF" fill-opacity="0.2"/>
<rect width="33.1833" height="32.5875" transform="matrix(-1 8.58531e-08 8.90211e-08 1 720 926.615)" fill="#75C8FF" fill-opacity="0.2"/>
<rect width="31.7056" height="31.7056" transform="matrix(-0.713483 0.700673 0.713483 0.700673 686.817 339.081)" fill="#75C8FF" fill-opacity="0.2"/>
<rect width="31.7056" height="31.7056" transform="matrix(-0.713483 0.700673 0.713483 0.700673 210.571 434.68)" fill="#75C8FF" fill-opacity="0.2"/>
<ellipse cx="19.9947" cy="19.6357" rx="19.9947" ry="19.6357" transform="matrix(-1 0 0 1 67.9817 268.027)" fill="#75C8FF" fill-opacity="0.2"/>
<g style="mix-blend-mode:multiply" opacity="0.2">
<rect width="78.9789" height="74.6155" transform="matrix(-1 0 0 1 78.979 949.384)" fill="#C2E7FF"/>
<rect width="38.9896" height="74.6155" transform="matrix(-1 0 0 1 117.969 949.384)" fill="#A3DAFE"/>
<rect width="38.9896" height="74.6155" transform="matrix(-1 0 0 1 156.958 949.384)" fill="#C2E7FF"/>
<rect width="83.9776" height="74.6155" transform="matrix(-1 0 0 1 240.936 949.384)" fill="#75C8FF"/>
<rect width="28.9923" height="152.176" transform="matrix(-1 0 0 1 269.928 871.824)" fill="#A3DAFE"/>
<rect width="28.9923" height="152.176" transform="matrix(-1 0 0 1 298.92 871.824)" fill="#75C8FF"/>
<rect width="28.9923" height="152.176" transform="matrix(-1 0 0 1 327.913 871.824)" fill="#90D0FB"/>
<rect width="76.9795" height="10.7996" transform="matrix(-1 0 0 1 404.892 1013.2)" fill="#75C8FF"/>
<rect width="76.9795" height="7.85427" transform="matrix(-1 0 0 1 404.892 1005.35)" fill="#90D0FB"/>
<rect width="76.9795" height="7.85427" transform="matrix(-1 0 0 1 404.892 997.492)" fill="#A3DAFE"/>
<rect width="76.9795" height="7.85427" transform="matrix(-1 0 0 1 404.892 989.638)" fill="#C2E7FF"/>
<rect width="76.9795" height="7.85427" transform="matrix(-1 0 0 1 404.892 981.783)" fill="#E0F3FF"/>
<rect width="76.9795" height="7.85427" transform="matrix(-1 0 0 1 404.892 973.929)" fill="#C2E7FF"/>
<rect width="76.9795" height="7.85427" transform="matrix(-1 0 0 1 404.892 966.075)" fill="#A3DAFE"/>
<rect width="76.9795" height="7.85427" transform="matrix(-1 0 0 1 404.892 958.221)" fill="#90D0FB"/>
<rect width="76.9795" height="7.85427" transform="matrix(-1 0 0 1 404.892 950.366)" fill="#75C8FF"/>
<rect width="31.9915" height="31.4171" transform="matrix(-1 0 0 1 379.899 896.368)" fill="#75C8FF"/>
<rect width="31.9915" height="31.4171" transform="matrix(-1 0 0 1 136.963 657.795)" fill="#75C8FF"/>
<rect width="31.7056" height="31.7056" transform="matrix(-0.713483 0.700673 0.713483 0.700673 199.319 731.429)" fill="#A3DAFE"/>
<rect width="31.9915" height="31.4171" transform="matrix(-1 0 0 1 240.936 917.967)" fill="#C2E7FF"/>
<rect width="77.9792" height="76.5791" transform="matrix(-1 0 0 1 77.9792 872.805)" fill="#A3DAFE"/>
<rect width="77.9792" height="76.5791" transform="matrix(-1 0 0 1 77.9792 796.226)" fill="#75C8FF"/>
<rect width="77.9792" height="42.2167" transform="matrix(-1 0 0 1 77.9792 754.01)" fill="#A3DAFE"/>
<rect width="84.4334" height="11.7302" transform="matrix(4.45106e-08 -1 -1 -4.29266e-08 89.7095 796.227)" fill="#75C8FF"/>
<rect width="84.4334" height="8.53106" transform="matrix(4.45106e-08 -1 -1 -4.29266e-08 98.2405 796.227)" fill="#90D0FB"/>
<rect width="84.4334" height="8.53106" transform="matrix(4.45106e-08 -1 -1 -4.29266e-08 106.771 796.227)" fill="#A3DAFE"/>
<rect width="84.4334" height="8.53106" transform="matrix(4.45106e-08 -1 -1 -4.29266e-08 115.302 796.227)" fill="#C2E7FF"/>
<rect width="84.4334" height="8.53106" transform="matrix(4.45106e-08 -1 -1 -4.29266e-08 123.834 796.227)" fill="#E0F3FF"/>
<rect width="84.4334" height="8.53106" transform="matrix(4.45106e-08 -1 -1 -4.29266e-08 132.365 796.227)" fill="#C2E7FF"/>
<rect width="84.4334" height="8.53106" transform="matrix(4.45106e-08 -1 -1 -4.29266e-08 140.896 796.227)" fill="#A3DAFE"/>
<rect width="84.4334" height="8.53106" transform="matrix(4.45106e-08 -1 -1 -4.29266e-08 149.427 796.227)" fill="#90D0FB"/>
<rect width="84.4334" height="8.53106" transform="matrix(4.45106e-08 -1 -1 -4.29266e-08 157.958 796.227)" fill="#75C8FF"/>
<rect width="77.9792" height="42.2167" transform="matrix(-1 0 0 1 77.9792 711.793)" fill="#C2E7FF"/>
<rect width="77.9792" height="77.5609" transform="matrix(-1 0 0 1 77.9792 634.232)" fill="#90D0FB"/>
<rect width="79.9787" height="76.5791" transform="matrix(-1 0 0 1 157.958 796.226)" fill="#A3DAFE"/>
<rect width="82.9779" height="76.5791" transform="matrix(-1 0 0 1 240.936 796.226)" fill="#C2E7FF"/>
<rect width="39.9893" height="76.5791" transform="matrix(-1 0 0 1 117.969 872.805)" fill="#75C8FF"/>
<rect width="39.9893" height="76.5791" transform="matrix(-1 0 0 1 157.958 872.805)" fill="#C2E7FF"/>
<path d="M157.958 872.805H240.936L157.958 949.384V872.805Z" fill="#75C8FF"/>
<path d="M157.958 872.805H203.946L157.958 915.022V872.805Z" fill="#A3DAFE"/>
<ellipse cx="19.9947" cy="19.6357" rx="19.9947" ry="19.6357" transform="matrix(-1 0 0 1 57.9846 574.343)" fill="#75C8FF"/>
<ellipse cx="19.9947" cy="19.6357" rx="19.9947" ry="19.6357" transform="matrix(-1 0 0 1 303.919 813.898)" fill="#C2E7FF"/>
<ellipse cx="19.9947" cy="19.6357" rx="19.9947" ry="19.6357" transform="matrix(-1 0 0 1 463.876 970.002)" fill="#C2E7FF"/>
</g>
<ellipse cx="19.9947" cy="19.6357" rx="19.9947" ry="19.6357" transform="matrix(1 0 0 -1 929.136 311.226)" fill="#75C8FF" fill-opacity="0.2"/>
<ellipse cx="19.9947" cy="19.6357" rx="19.9947" ry="19.6357" transform="matrix(1 0 0 -1 814.167 1024)" fill="#75C8FF" fill-opacity="0.2"/>
<rect width="8.9976" height="8.83605" transform="matrix(1 0 0 -1 1058.1 842.37)" fill="#75C8FF" fill-opacity="0.2"/>
<rect width="8.9976" height="8.83605" transform="matrix(1 0 0 -1 788.174 478.128)" fill="#75C8FF" fill-opacity="0.2"/>
<rect width="8.9976" height="8.83605" transform="matrix(1 0 0 -1 1363.02 554.708)" fill="#75C8FF" fill-opacity="0.2"/>
<rect width="8.9976" height="8.83605" transform="matrix(1 0 0 -1 730.189 954.293)" fill="#75C8FF" fill-opacity="0.2"/>
<rect width="8.9976" height="8.83605" transform="matrix(1 0 0 -1 1305.04 994.546)" fill="#75C8FF" fill-opacity="0.2"/>
<rect width="33.1833" height="32.5875" transform="matrix(1 -8.58531e-08 -8.90211e-08 -1 1222.49 943.29)" fill="#75C8FF" fill-opacity="0.2"/>
<rect width="33.1833" height="32.5875" transform="matrix(1 -8.58531e-08 -8.90211e-08 -1 720 97.3857)" fill="#75C8FF" fill-opacity="0.2"/>
<rect width="31.7056" height="31.7056" transform="matrix(0.713483 -0.700673 -0.713483 -0.700673 753.183 684.919)" fill="#75C8FF" fill-opacity="0.2"/>
<rect width="31.7056" height="31.7056" transform="matrix(0.713483 -0.700673 -0.713483 -0.700673 1229.43 589.32)" fill="#75C8FF" fill-opacity="0.2"/>
<ellipse cx="19.9947" cy="19.6357" rx="19.9947" ry="19.6357" transform="matrix(1 0 0 -1 1372.02 755.973)" fill="#75C8FF" fill-opacity="0.2"/>
<g style="mix-blend-mode:multiply" opacity="0.2">
<rect width="78.9789" height="74.6155" transform="matrix(1 0 0 -1 1361.02 74.6152)" fill="#C2E7FF"/>
<rect width="38.9896" height="74.6155" transform="matrix(1 0 0 -1 1322.03 74.6152)" fill="#A3DAFE"/>
<rect width="38.9896" height="74.6155" transform="matrix(1 0 0 -1 1283.04 74.6152)" fill="#C2E7FF"/>
<rect width="83.9776" height="74.6155" transform="matrix(1 0 0 -1 1199.06 74.6152)" fill="#75C8FF"/>
<rect width="28.9923" height="152.176" transform="matrix(1 0 0 -1 1170.07 152.177)" fill="#A3DAFE"/>
<rect width="28.9923" height="152.176" transform="matrix(1 0 0 -1 1141.08 152.177)" fill="#75C8FF"/>
<rect width="28.9923" height="152.176" transform="matrix(1 0 0 -1 1112.09 152.177)" fill="#90D0FB"/>
<rect width="76.9795" height="10.7996" transform="matrix(1 0 0 -1 1035.11 10.7998)" fill="#75C8FF"/>
<rect width="76.9795" height="7.85427" transform="matrix(1 0 0 -1 1035.11 18.6538)" fill="#90D0FB"/>
<rect width="76.9795" height="7.85427" transform="matrix(1 0 0 -1 1035.11 26.5078)" fill="#A3DAFE"/>
<rect width="76.9795" height="7.85427" transform="matrix(1 0 0 -1 1035.11 34.3623)" fill="#C2E7FF"/>
<rect width="76.9795" height="7.85427" transform="matrix(1 0 0 -1 1035.11 42.2168)" fill="#E0F3FF"/>
<rect width="76.9795" height="7.85427" transform="matrix(1 0 0 -1 1035.11 50.0713)" fill="#C2E7FF"/>
<rect width="76.9795" height="7.85427" transform="matrix(1 0 0 -1 1035.11 57.9253)" fill="#A3DAFE"/>
<rect width="76.9795" height="7.85427" transform="matrix(1 0 0 -1 1035.11 65.7793)" fill="#90D0FB"/>
<rect width="76.9795" height="7.85427" transform="matrix(1 0 0 -1 1035.11 73.6338)" fill="#75C8FF"/>
<rect width="31.9915" height="31.4171" transform="matrix(1 0 0 -1 1060.1 127.632)" fill="#75C8FF"/>
<rect width="31.9915" height="31.4171" transform="matrix(1 0 0 -1 1303.04 366.205)" fill="#75C8FF"/>
<rect width="31.7056" height="31.7056" transform="matrix(0.713483 -0.700673 -0.713483 -0.700673 1240.68 292.571)" fill="#A3DAFE"/>
<rect width="31.9915" height="31.4171" transform="matrix(1 0 0 -1 1199.06 106.033)" fill="#C2E7FF"/>
<rect width="77.9792" height="76.5791" transform="matrix(1 0 0 -1 1362.02 151.194)" fill="#A3DAFE"/>
<rect width="77.9792" height="76.5791" transform="matrix(1 0 0 -1 1362.02 227.773)" fill="#75C8FF"/>
<rect width="77.9792" height="42.2167" transform="matrix(1 0 0 -1 1362.02 269.99)" fill="#A3DAFE"/>
<rect width="84.4334" height="11.7302" transform="matrix(-4.45106e-08 1 1 4.29266e-08 1350.29 227.773)" fill="#75C8FF"/>
<rect width="84.4334" height="8.53106" transform="matrix(-4.45106e-08 1 1 4.29266e-08 1341.76 227.773)" fill="#90D0FB"/>
<rect width="84.4334" height="8.53106" transform="matrix(-4.45106e-08 1 1 4.29266e-08 1333.23 227.773)" fill="#A3DAFE"/>
<rect width="84.4334" height="8.53106" transform="matrix(-4.45106e-08 1 1 4.29266e-08 1324.7 227.773)" fill="#C2E7FF"/>
<rect width="84.4334" height="8.53106" transform="matrix(-4.45106e-08 1 1 4.29266e-08 1316.17 227.773)" fill="#E0F3FF"/>
<rect width="84.4334" height="8.53106" transform="matrix(-4.45106e-08 1 1 4.29266e-08 1307.64 227.773)" fill="#C2E7FF"/>
<rect width="84.4334" height="8.53106" transform="matrix(-4.45106e-08 1 1 4.29266e-08 1299.1 227.773)" fill="#A3DAFE"/>
<rect width="84.4334" height="8.53106" transform="matrix(-4.45106e-08 1 1 4.29266e-08 1290.57 227.773)" fill="#90D0FB"/>
<rect width="84.4334" height="8.53106" transform="matrix(-4.45106e-08 1 1 4.29266e-08 1282.04 227.773)" fill="#75C8FF"/>
<rect width="77.9792" height="42.2167" transform="matrix(1 0 0 -1 1362.02 312.207)" fill="#C2E7FF"/>
<rect width="77.9792" height="77.5609" transform="matrix(1 0 0 -1 1362.02 389.768)" fill="#90D0FB"/>
<rect width="79.9787" height="76.5791" transform="matrix(1 0 0 -1 1282.04 227.773)" fill="#A3DAFE"/>
<rect width="82.9779" height="76.5791" transform="matrix(1 0 0 -1 1199.06 227.773)" fill="#C2E7FF"/>
<rect width="39.9893" height="76.5791" transform="matrix(1 0 0 -1 1322.03 151.194)" fill="#75C8FF"/>
<rect width="39.9893" height="76.5791" transform="matrix(1 0 0 -1 1282.04 151.194)" fill="#C2E7FF"/>
<path d="M1282.04 151.194H1199.06L1282.04 74.6152V151.194Z" fill="#75C8FF"/>
<path d="M1282.04 151.194H1236.05L1282.04 108.978V151.194Z" fill="#A3DAFE"/>
<ellipse cx="19.9947" cy="19.6357" rx="19.9947" ry="19.6357" transform="matrix(1 0 0 -1 1382.02 449.657)" fill="#75C8FF"/>
<ellipse cx="19.9947" cy="19.6357" rx="19.9947" ry="19.6357" transform="matrix(1 0 0 -1 1136.08 210.102)" fill="#C2E7FF"/>
<ellipse cx="19.9947" cy="19.6357" rx="19.9947" ry="19.6357" transform="matrix(1 0 0 -1 976.124 53.998)" fill="#C2E7FF"/>
</g>
<rect x="720" width="720" height="1024" fill="url(#paint0_linear_1112_11214)"/>
<rect width="720" height="1024" fill="url(#paint1_linear_1112_11214)"/>
<defs>
<linearGradient id="paint0_linear_1112_11214" x1="1126" y1="400" x2="1503.19" y2="270.689" gradientUnits="userSpaceOnUse">
<stop stop-color="#F0F9FF"/>
<stop offset="1" stop-color="#F0F9FF" stop-opacity="0"/>
</linearGradient>
<linearGradient id="paint1_linear_1112_11214" x1="246.5" y1="656" x2="-52.4706" y2="786.454" gradientUnits="userSpaceOnUse">
<stop stop-color="#F0F9FF"/>
<stop offset="1" stop-color="#F0F9FF" stop-opacity="0"/>
</linearGradient>
</defs>
</svg>
