<?xml version="1.0" encoding="utf-8"?>
<!-- Generator: Adobe Illustrator 26.0.1, SVG Export Plug-In . SVG Version: 6.00 Build 0)  -->
<svg version="1.1" id="Layer_1" xmlns="http://www.w3.org/2000/svg" xmlns:xlink="http://www.w3.org/1999/xlink" x="0px" y="0px"
	 width="64px" height="64px" viewBox="0 0 64 64" style="enable-background:new 0 0 64 64;" xml:space="preserve">
<style type="text/css">
	.st0{fill:#FFFFFF;}
	.st1{fill:#221F1F;}
	.st2{fill:url(#SVGID_1_);}
	.st3{fill-rule:evenodd;clip-rule:evenodd;fill:#2BA6DE;}
	.st4{fill-rule:evenodd;clip-rule:evenodd;fill:#1176BB;}
</style>
<circle class="st0" cx="32" cy="32" r="32"/>
<g id="logo">
	<g>
		<g>
			<g>
				<path class="st1" d="M33.6,57.8c0,0.1,0,0.1,0,0.2l0,0.1c-2.6,2-5.1,2.5-7.2,2.5c-1.1,0-2-0.2-2.9-0.4c-2.5-0.7-4.1-2.2-4.1-2.3
					l0,0c0,0,0-0.1,0-0.2V28.7c0-0.2,0.2-0.4,0.4-0.4h0.1c0.2,0,0.4,0.2,0.4,0.4v28.6c0.6,0.5,1.9,1.4,3.7,1.9
					c3,0.9,5.8,0.2,8.6-1.8V10.2c0-0.2,0.2-0.4,0.4-0.4h0.1c0.2,0,0.4,0.2,0.4,0.4V57.8z"/>
			</g>
			<g>
				<g>
					<path class="st1" d="M30.3,6.9h-8.8c0,0,0,0,0,0c-0.2-0.8-0.9-1.4-1.8-1.4c-1,0-1.9,0.8-1.9,1.9c0,1,0.8,1.9,1.9,1.9
						c0.9,0,1.6-0.6,1.8-1.4c0,0,0,0,0,0h8.8c0.2,0,0.4-0.2,0.4-0.4V7.3C30.7,7.1,30.5,6.9,30.3,6.9z M19.7,8.5
						c-0.6,0-1.1-0.5-1.1-1.1c0-0.6,0.5-1.1,1.1-1.1c0.6,0,1.1,0.5,1.1,1.1C20.7,8,20.3,8.5,19.7,8.5z"/>
				</g>
				<g>
					<path class="st1" d="M46.5,5.5c-0.9,0-1.6,0.6-1.8,1.4c0,0,0,0-0.1,0h-8.7c-0.2,0-0.4,0.2-0.4,0.4v0.1c0,0.2,0.2,0.4,0.4,0.4
						h8.7c0,0,0,0,0.1,0c0.2,0.8,0.9,1.4,1.8,1.4c1,0,1.9-0.8,1.9-1.9C48.4,6.4,47.6,5.5,46.5,5.5z M46.5,8.5
						c-0.6,0-1.1-0.5-1.1-1.1c0-0.6,0.5-1.1,1.1-1.1c0.6,0,1.1,0.5,1.1,1.1C47.6,8,47.1,8.5,46.5,8.5z"/>
				</g>
			</g>
			
				<radialGradient id="SVGID_1_" cx="33.156" cy="-4.4208" r="2.7223" gradientTransform="matrix(0.6859 0 0 0.6859 10.347 10.4178)" gradientUnits="userSpaceOnUse">
				<stop  offset="0.5744" style="stop-color:#151112"/>
				<stop  offset="0.7977" style="stop-color:#151112"/>
				<stop  offset="1" style="stop-color:#151112"/>
			</radialGradient>
			<path class="st2" d="M33.1,5.5c-1,0-1.9,0.8-1.9,1.9s0.8,1.9,1.9,1.9c1,0,1.9-0.8,1.9-1.9S34.1,5.5,33.1,5.5z M33.1,8.5
				C32.5,8.5,32,8,32,7.4s0.5-1.1,1.1-1.1c0.6,0,1.1,0.5,1.1,1.1S33.7,8.5,33.1,8.5z"/>
		</g>
		<circle class="st3" cx="30.6" cy="32.3" r="18.5"/>
		
			<image style="overflow:visible;" width="155" height="156" xlink:href="27942FE7.png"  transform="matrix(0.24 0 0 0.24 12.046 13.5982)">
		</image>
		<g>
			<path class="st4" d="M40.1,26.8C40.1,26.8,40.1,26.8,40.1,26.8C40.1,26.8,40.1,26.8,40.1,26.8C40,26.8,40,26.8,40.1,26.8
				C40,26.8,40,26.8,40.1,26.8z"/>
			<path class="st4" d="M37.1,47.5l3.4-1.8c0.1,0,0.1-0.1,0.2-0.1l2.1-2.1c0,0-0.1,0-0.1,0c-0.2-0.1-0.3-0.2-0.5-0.3
				c0,0,0,0-0.1-0.1c0-0.1-0.1-0.1-0.1-0.2c-0.1-0.1-0.2-0.2-0.3-0.3c-0.1-0.1-0.2-0.1-0.2-0.1c-0.1,0-0.2,0-0.2,0
				c0,0-0.1,0-0.1-0.1c0-0.1-0.1-0.2-0.2-0.3c-0.1,0-0.2-0.1-0.3-0.2c0,0-0.1-0.1-0.1-0.1c0-0.1,0-0.1,0.1-0.1c0,0,0,0,0,0
				c0,0,0,0,0-0.1c0,0,0,0,0,0c-0.1,0-0.3,0-0.4,0c-0.1,0-0.1,0-0.2-0.1c0,0-0.1,0-0.1,0c0,0,0,0.1,0,0.1c-0.1,0.1-0.4,0.2-0.5,0.1
				c-0.1-0.1-0.2-0.1-0.3-0.1c-0.1,0-0.3,0-0.4,0c-0.1,0-0.1,0-0.1-0.1c0,0,0,0,0,0c0-0.1-0.1-0.2-0.2-0.2c-0.1,0-0.1,0-0.2,0
				c-0.1,0-0.2-0.1-0.2-0.2c0,0,0-0.1-0.1-0.1c0,0-0.1,0-0.1,0.1c0,0,0,0.1,0,0.1c0,0.1-0.1,0.2-0.2,0.2c-0.1,0-0.1,0.1-0.2,0.1
				c0,0-0.1,0-0.1-0.1c0,0,0-0.1,0-0.1c0.1-0.1,0.1-0.1,0.2-0.2c0,0,0-0.1,0-0.2c0,0-0.1,0-0.1,0c-0.1,0-0.2,0.1-0.3,0.1
				c-0.1,0.1-0.2,0.2-0.4,0.2c-0.1,0-0.3,0-0.4,0.1c0,0-0.1,0-0.1,0c-0.1,0-0.2,0-0.2,0.1c-0.1,0.1-0.2,0.2-0.2,0.3
				c0,0.1-0.1,0.2-0.2,0.3c-0.1,0.1-0.2,0.1-0.2,0.2c0,0,0,0.1-0.1,0.2c0,0,0,0,0,0l0,0l0,0c0,0,0,0,0,0c0,0-0.1,0-0.1,0
				c-0.1-0.1-0.2-0.1-0.2-0.2c-0.1-0.1-0.2-0.2-0.4-0.2c-0.2,0-0.4,0-0.5,0.1c-0.1,0-0.1,0-0.2,0.1c-0.1,0.1-0.2,0.1-0.4,0
				c-0.3,0-0.4-0.2-0.5-0.4c-0.1-0.1-0.1-0.2-0.2-0.3c0,0,0-0.1,0-0.1c0-0.2,0-0.3,0.1-0.4c0,0,0.1-0.1,0.1-0.2c0-0.2,0-0.3,0.1-0.4
				c0-0.1,0.1-0.5,0.1-0.7c0,0,0-0.1,0-0.1c-0.1,0-0.1,0-0.2-0.1l0,0c0,0,0,0,0,0l0,0l0,0c-0.1-0.1-0.2-0.2-0.4-0.2
				c-0.1,0-0.3,0-0.4-0.1c-0.2,0-0.3,0-0.5,0c-0.1,0-0.2,0-0.4,0c-0.1,0-0.2,0-0.2,0c0,0-0.1,0,0-0.1c0.1-0.1,0.2-0.4,0.2-0.6
				c0-0.1,0-0.2,0-0.3c0,0,0-0.1,0.1-0.1c0.1,0,0.2-0.1,0.2-0.2c0-0.1,0-0.2,0-0.3c0-0.1,0-0.3,0.1-0.4c0.1-0.1,0.1-0.1,0.2-0.2
				c0,0,0-0.1,0.1-0.1c0-0.1-0.1-0.2-0.1-0.2c-0.2,0-0.4,0-0.5,0C30.9,37,30.7,37,30.6,37c-0.1,0-0.2,0.1-0.3,0.2
				c0,0.1-0.1,0.1-0.1,0.2c-0.1,0.2-0.1,0.4-0.3,0.6c-0.1,0.2-0.2,0.2-0.3,0.1c-0.1,0-0.2,0-0.2,0c-0.1,0-0.3,0.1-0.4,0.1
				c-0.1,0-0.2,0-0.3-0.1c-0.1-0.1-0.2-0.2-0.3-0.3c-0.1,0-0.2,0-0.3-0.1c-0.1-0.2-0.2-0.3-0.3-0.4c0-0.1-0.1-0.1-0.1-0.2
				c0-0.1-0.1-0.3-0.1-0.4c0-0.1,0-0.2,0-0.3c0-0.3-0.1-0.3,0-0.6c0-0.1,0-0.1,0.1-0.2c0.1-0.1,0.1-0.3,0.1-0.4c0-0.2-0.2-0.8-0.1-1
				c0.1-0.2,0.2-0.3,0.4-0.4c0.2,0,0.4-0.1,0.6-0.3c0.1-0.1,0.3-0.1,0.4-0.2c0.1,0,0.3,0,0.4,0c0.1,0,0.2,0,0.3,0
				c0.1,0,0.2,0,0.2,0.1c0.1,0.2,0.3,0.2,0.4,0.1c0.1,0,0.2-0.1,0.2-0.1c0-0.1,0.1-0.2,0.1-0.3c0-0.1,0.1-0.1,0.1-0.2
				c0.1,0,0.1,0,0.2,0c0.2,0,0.4,0,0.6,0c0.2,0,0.7,0.4,0.8,0.6c0.1,0.1,0.1,0.1,0.2,0c0.1,0,0.1-0.1,0.2-0.1c0.1,0-0.1-0.1-0.1-0.1
				c0.1,0.1,0.2,0.2,0.3,0.4c0,0.1,0.1,0.1,0,0.2c0,0,0,0.1,0,0.1c0,0.1,0,0.2,0,0.3c0.1,0.3,0.1,0.3,0.2,0.5c0,0.1,0.1,0.2,0.2,0.3
				c0.1,0.1,0.2,0.1,0.3,0c0.1-0.2,0.2-0.4,0.2-0.6c0,0,0-0.1,0-0.1c0-0.1,0,0,0-0.1c0-0.1,0-0.2,0-0.4c0,0,0,0,0,0
				c-0.1-0.4-0.9-0.8-0.9-1.2c0-0.1,0-0.1,0.1-0.2c0.2-0.2,0.2-0.4,0.5-0.4c0,0,0.1,0,0.1,0c0.1,0,0.2-0.1,0.2-0.2
				c0.1-0.1,0.1-0.1,0.1-0.2c0,0,0.1-0.1,0.1-0.1c0.1,0,0.2-0.1,0.3-0.2c0.1-0.1,0.3-0.2,0.4-0.2c0.1,0,0.1-0.1,0.1-0.2
				c0-0.1,0-0.1,0.1-0.1c0.1,0,0.1-0.1,0.1-0.1c0,0,0.1-0.1,0-0.1c0-0.1-0.1-0.1,0-0.2c0.1-0.1,0.1-0.2,0-0.4c0,0,0-0.1,0-0.1
				c0-0.1,0-0.3,0-0.4c0,0,0,0,0,0c0,0,0,0,0,0c0.1,0.1,0,0.1,0.1,0.2c0,0,0,0,0.1,0.1c0,0,0,0,0,0c0.1-0.1,0.2-0.2,0.2-0.3
				c0-0.1,0-0.1,0-0.2c0,0,0-0.1,0-0.1c0,0,0-0.1,0.1-0.1c0.1,0,0.1,0,0.2-0.1c0.1-0.1,0.2-0.3,0.3-0.5c0-0.2,0.1-0.2,0.3-0.2
				c0.1,0,0.2,0,0.3,0c0,0,0.1,0,0.1-0.1c0,0,0,0,0,0c0,0,0,0,0,0c0,0-0.1,0-0.1,0c0,0-0.1,0,0,0c0,0,0,0,0,0c0,0,0,0,0,0
				c0.3,0,0.5-0.1,0.8-0.1c0,0,0.1,0,0.1-0.1c0.1-0.1,0.1-0.1,0-0.2c-0.1-0.1-0.1-0.2-0.1-0.2c0-0.1,0.1-0.2,0.1-0.3
				c0.1-0.2,0.2-0.3,0.4-0.4c0.1,0,0.2-0.1,0.3-0.2c0.1-0.1,0.1-0.1,0.2-0.1c0.2,0,0.4-0.1,0.6-0.1c0.1,0-0.7,0.6-0.7,0.5
				c0,0,0.1-0.1,0.1-0.1c0.1,0,0.3-0.1,0.4-0.1c0,0,0,0,0,0c0,0,0,0.1,0,0.1c-0.1,0-0.1,0-0.2,0.1c-0.1,0.1,0.6-0.5,0.5-0.4
				c0,0.1-0.8,0.8-0.8,0.8c0,0.1,0.1,0.2,0.2,0.2c0,0,0.1,0,0.1,0c0.2-0.1,0.4-0.2,0.5-0.3c0.1-0.1,0.2-0.1,0.3-0.1
				c0.2-0.1,1.2-0.8,1.5-0.9c0.1,0-0.6,0.6-0.6,0.6c0-0.2,0.2-0.1,0.3-0.2c0,0,0.1,0,0.1-0.1c0,0,0.1,0,0.1-0.1c0,0,0.1-0.1,0-0.1
				c-0.1-0.1-0.2-0.2-0.1-0.3c0,0,0,0,0,0c0,0-0.1-0.1-0.1,0c-0.2,0.1-0.3,0.3-0.4,0.5c0,0.1-0.1,0.1-0.1,0.1c0,0-0.1,0-0.1,0
				c0,0,0,0-0.1,0c0,0-0.1,0-0.1,0c0,0-0.1,0-0.1,0c-0.1,0-0.1-0.1-0.2-0.2c-0.2,0-0.3-0.1-0.3-0.3c0-0.2,0-0.3,0-0.4
				c0-0.1,0-0.1-0.1-0.1c0,0-0.1,0-0.1,0c0,0,0,0,0,0c0,0,0.1,0,0.1,0c0.1,0,0.2-0.1,0.3-0.2c0,0,0.1-0.1,0-0.2
				c0-0.1-0.1-0.1-0.1-0.1c-0.1-0.1-0.3-0.1-0.4-0.1c-0.4,0.1-0.8,0.2-1.2,0.4c0,0,0,0,0,0l0,0c-0.1,0.1-0.1,0.1-0.2,0.2
				c0,0,0,0,0,0c-0.1,0-0.1,0-0.2,0.1c0,0-0.1,0.1-0.1,0.1l0,0l0,0c0,0,0.1-0.1,0.1-0.1c0.1,0,0.1,0,0.2-0.1c0,0,0,0,0,0
				c0-0.1,0-0.1,0.1-0.2c0,0,0,0,0,0c0,0,0,0,0,0c0-0.1,0-0.1,0.1-0.2c0.2-0.1,0.3-0.2,0.5-0.3c0.1,0-0.8,0.4-0.7,0.2
				c0,0,0.3,0.1,0.3,0c0.1-0.1,0.2-0.2,0.3-0.2c0.1-0.1,0.3,0.1,0.4,0c0.3-0.2,0.7-0.2,0.9,0.1c0.3,0.2,0.5,0,0.8,0.1
				c0,0,0.1,0,0.1,0c0,0,0.1,0,0.1-0.1c0.1-0.1,0.2-0.1,0.3-0.3c0.1-0.1,0.2-0.2,0.3-0.2c0.1,0,0.2,0,0.2,0c0.2,0,0.4-0.1,0.6-0.3
				c0.1-0.1,0.1-0.2,0.1-0.3c0-0.1,0-0.1,0-0.2c0-0.1,0.1-0.1,0.1-0.2c0,0,0-0.1,0-0.1c-0.1-0.1-0.2-0.2-0.3-0.2c0,0,0,0,0,0l0,0
				l0,0c0,0,0,0,0,0c0,0,0-0.1,0-0.1c0-0.1-0.1-0.1-0.2-0.2c0,0-0.1,0-0.1,0c0,0,0,0,0,0c0,0,0,0,0.1,0c0,0,0.1,0,0.1,0
				c0.1,0-0.6,0.5-0.6,0.4c0-0.1-0.1-0.1-0.2-0.1c0,0-0.1,0-0.1,0c-0.1-0.1-0.3-0.2-0.4-0.3c0,0-0.1,0-0.1-0.1
				c0-0.2-0.2-0.3-0.3-0.4c-0.1-0.1-0.1-0.1-0.1-0.2c0-0.1-0.1-0.1,0-0.2c0.1-0.1,0.1-0.1,0.2-0.2c0-0.1,0.1-0.1,0-0.2
				c-0.1-0.1-0.3,0.7-0.3,0.6c0,0,0-0.1-0.1-0.1c-0.1-0.1,0-0.1-0.1-0.2c-0.1,0,0-0.1,0-0.2c0-0.1,0-0.1,0-0.2c0-0.1,0-0.2-0.1-0.3
				c-0.1-0.2-0.1-0.4-0.1-0.6c0-0.1,0-0.1,0-0.2c0,0,0,0-0.1,0c0,0,0,0,0,0c-0.1,0.2-0.3,0.3-0.3,0.5c-0.1,0.2-0.2,0.4-0.4,0.5
				c-0.1,0-0.1,0.1-0.1,0.1c-0.1,0-0.1,0.1-0.2,0.1c-0.1,0-0.1,0-0.2-0.1c-0.1,0-0.1-0.1-0.1-0.1c0-0.1-0.1-0.1-0.2-0.2
				c-0.1-0.1-0.1-0.1-0.1-0.2c0-0.1-0.2,0.6-0.3,0.4c0,0,0-0.1,0-0.1c0.1-0.1,0.1-0.3,0.2-0.4c0,0,0-0.1,0-0.1
				c-0.1,0-0.2-0.2-0.4-0.2c-0.1,0-0.1,0-0.2-0.1c0,0-0.1-0.1-0.1-0.1c0,0,0-0.1,0-0.1c-0.1-0.1-0.1-0.2-0.2-0.3
				c0-0.1-0.1-0.1-0.1-0.2c-0.1-0.1-0.2-0.2-0.3-0.1c-0.1,0-0.1,0-0.2,0c-0.2,0-0.4,0-0.5-0.2c-0.1,0-0.1-0.1-0.2-0.1
				c-0.2-0.1-0.4,0.1-0.4,0.2c0,0.1,0,0.2,0,0.3c0,0.1,0.1,0.1,0,0.2c-0.1,0.1-0.2,0.2,0.1,0.5l-0.5,0.3l0.6,0.7l0,0.6l-0.3,0.3
				l-0.7,0.3v0.6h0.6v0.6l-1.1,0c-0.2,0-0.3-0.1-0.4-0.3l-0.4-0.9c0-0.1-0.1-0.1-0.1-0.1c-0.3-0.1-0.4-0.2-0.4-0.2
				c-0.1-0.2-1.1-0.5-1.3-0.6c-0.2-0.1-0.8-0.3-1-0.4c-0.1-0.1-0.4,0-0.5-0.1c-0.1-0.1-0.1-0.1-0.2-0.2c-0.1,0-0.1,0-0.1,0
				c-0.7-2.3,1-2,0.9-2.1c0,0,0,0,0,0l0,0l-0.6-0.1c0,0,0.6,0.1,0.6,0.1c0.1-0.1,0.1-0.2,0.1-0.4c0-0.2,1.1-0.2,1.1-0.4
				c0-0.1,0-0.1,0-0.2c0,0,0.4-0.2,0.4-0.2c-0.1,0-0.1,0-0.2,0c-0.1,0-0.1,0-0.1-0.1c0,0,0-0.1,0-0.1c0,0,0.1-0.1,0.1-0.1
				c0.8,0.2,2,0.1,1.9-0.3c-0.1-0.3,0-0.5-0.2-0.7C33,17,33,17,32.6,16.9c-0.1,0-0.5,0.4-0.4,0.3c0.2-0.2-0.5,0.1-0.4,0.4
				c-0.3-0.1-0.2,0.5-0.1,0.3c0,0-0.3,0.1-0.3,0.1c0.1,0-0.2-0.3-0.1-0.3c0.1,0-0.4,0.1-0.4,0c0-0.1-0.3-0.4-0.3-0.5
				c0,0-0.6,0.2-0.6,0c0,0,0.3,0,0.6,0c0,0-0.5-0.1-0.5-0.1c0,0-0.4,0-0.4,0c0.2,0-0.1-0.4,0-0.6c0,0-0.3,0-0.3,0
				c0.1,0-0.1-0.4,0-0.3c0.1,0-1.2,0.1-1.2,0l0,0.6l0.6,0l0,0.3h0.3l0,0.6l-0.6,0l0,0.6l-0.3,0l0-0.6l-2.1,0l0-0.9h-0.6v-0.3l-0.6,0
				l0,0.3h-0.6l0,0.3h1.3v0.4l-0.9,0l0,0.3l-0.3,0l0,0.3l-0.3,0l0-0.3l-1.2,0l-0.2,0.2l-1.3,0.9l-2.8,2.2c0.4-0.3-0.2,0.2-0.2,0.2
				c0,0-0.1,0.2-0.1,0.2C18,21.3,18,21.4,18,21.5c0,0,0,0,0.1,0.1l0,0c0,0,0,0,0,0c0,0,0,0,0,0c0,0,0,0,0,0c0,0,0,0,0,0c0,0,0,0,0,0
				c0.1,0.1-1.3,0.7-1.2,0.8c0,0,0.1,0.1,0,0.2c0,0,0,0.1-0.1,0.1c0,0,0,0,0,0c0,0,0,0,0,0l0,0c0,0,0,0.1,0,0.1c0,0.1,0,0.1,0,0.2
				c0,0,0,0,0,0l0.1,0.3c0.1,0,0.2,0.1,0.2,0.2c0.1,0.1,0.1,0.1,0.2,0.2c0.1,0,0.2,0.1,0.2,0.1c0,0,0.1,0.1,0.1,0.1
				c0,0.1-0.1,0.2,0,0.3c0,0,0,0.1,0.1,0.1l0,0l0,0c0,0,0,0,0,0l0,0c0,0,0,0.1,0,0.1c0,0,0.1,0,0.1,0c0.1,0,0.1,0,0.1,0.1
				c0,0.1,0.2,0.3,0.2,0.4c0.1,0.1,0,0.2,0,0.3c0,0,0,0.1-0.1,0.1c0,0-0.1,0.1-0.1,0.1c-0.1,0-0.3-0.1-0.4-0.2l0,0c0,0,0,0,0,0
				c0,0,0.1,0,0.1,0c0.1,0,0.1-0.1,0.1-0.1c0-0.2-0.1-0.5-0.2-0.6c-0.1,0-0.1-0.1-0.2-0.1c0-0.1,0-0.1-0.1-0.2
				c0-0.2-0.1-0.3-0.3-0.3c-0.1,0-0.2-0.1-0.3-0.2c-0.1,0-0.1-0.1-0.2-0.1c0,0-0.1,0-0.1,0c0,0-0.1,0-0.1,0.1c0,0.1,0,0.2,0,0.3
				c0,0,0,0.1,0,0.1c0.1,0.1,0.1,0.2,0.2,0.2c0.2,0.3,0.5,0.6,0.7,0.9c0,0,0.1,0.1,0.1,0.1l0,0c0,0,0,0,0,0c-0.1,0-0.3,0-0.3,0.2
				c0,0.3,1.4-0.1,1.5,0c0,0.3,1.3-0.5,1.2-0.3c-0.1,0.2-0.2,0.5-0.3,0.7c-0.1,0.2-0.8,0.1-1,0.3c-0.1,0.2-0.2,0.4-0.2,0.6
				c0,0,0,0.1,0,0.1c0,0.3,0,0.5-0.2,0.7c0,0.1-0.1,0.1,0,0.2c0.1,0.2,0.1,0.3,0.1,0.5c0,0.1,0,0.2,0,0.2c0,0,0,0.1,0,0.2
				c0,0.1,0.1,0.2,0.2,0.4c0,0,0.1,0.1,0.1,0.1c0.1,0.1,0.1,0.1,0.1,0.1c0,0,0,0.1-0.1,0.1c0,0,0,0.1,0,0.1c0,0.1,0.1,0.2,0.1,0.4
				c0,0,0,0.1,0,0.1c0.1,0.2,0.8,0.7,0.9,0.8c0,0.1,0.1,0.2,0.1,0.3c0,0.1,0,0.2,0.1,0.2c0.3,0,0.5,0.2,0.7,0.4
				c0.2,0.1,0.5,0,0.5,0.3c0,0.2,0.1,0.3,0.1,0.5c0.1,0.3,0.2,0.5,0.2,0.8c0,0.1,0.1,0.2,0.1,0.2c0.1,0.1,0.2,0.3,0.3,0.4
				c0.1,0.1,0,0.2,0,0.3c0,0.1-0.1,0.1-0.2,0.1c0,0,0,0,0,0c0,0-0.1,0.1,0,0.1c0.1,0.1,0.2,0.3,0.3,0.3c0.2,0.1,0.3,0.2,0.5,0.4
				c0.1,0.1,0.1,0.1,0.1,0.2c0,0.1,0,0.2,0,0.2c0,0.1,0,0.2,0.1,0.2c0.2,0.2,0.4,0.2,0.5,0.5c0,0,0.1,0.1,0.2,0
				c0.1-0.1,0.1-0.1,0.1-0.2c0-0.1-0.1-0.2-0.2-0.3c-0.1-0.1-0.1-0.2-0.2-0.3c0-0.1-0.1-0.1-0.1-0.2c0-0.1,0-0.2-0.1-0.4
				c0-0.1-0.2-0.2-0.2-0.4c0-0.2-0.1-0.3-0.2-0.5c-0.2-0.2-0.2-0.5-0.4-0.7c0,0-0.1-0.1-0.1-0.1c0-0.2-0.1-0.5,0-0.7c0,0,0,0,0.1,0
				c0.1,0,0.2,0.1,0.2,0.1c0.1,0,0.1,0.1,0.2,0.2c0,0.2,0.1,0.4,0.1,0.6c0.1,0.3,0.3,0.6,0.5,0.8c0,0,0.1,0.1,0.1,0.1
				c0,0.1,0.1,0.2,0.2,0.3c0.1,0.1,0.1,0.1,0.2,0.2c0,0,0,0.1,0,0.1c0,0,0,0.1,0,0.1c0,0.1,0,0.2,0,0.2c0.1,0.1,0.2,0.1,0.2,0.2
				c0.1,0.1,0.2,0.1,0.2,0.2c0,0.1,0.1,0.1,0.1,0.1c0.5,0.5,0.8,0.3,1,0.8c0,0,0,0.1,0,0.1c0,0.1,0,0.1-0.1,0.2
				c-0.1,0.1-0.1,0.3,0,0.4c0.1,0.1,0.2,0.2,0.3,0.3c0.1,0,0.1,0.2,0.2,0.4c0.1,0.1,0.2,0.2,0.3,0.2c0.1,0,0.1,0,0.2,0
				c0.1,0,0.1,0,0.2,0.1c0.2,0.2,0.2,0.5,0.5,0.6c0.1,0,0.4,0,0.5,0.1c0.1,0.1,0.3,0.1,0.4,0.2c0.5,0.2,0.5,0.2,1,0
				c0.1-0.1,0.3,0,0.4,0.1c0.2,0.2,0.5,0.4,0.7,0.6c0.1,0.1,0.2,0.2,0.4,0.2c0.2,0,0.4,0.1,0.6,0.1c0.2,0.1,0.4,0.2,0.7,0.1
				c0.1,0,0.1,0,0.1,0.1c0,0.1,0.2,0.2,0.2,0.3c0.1,0.1,0.2,0.2,0.3,0.4c0.1,0.1,0.1,0.2,0.1,0.3c0,0.1,0,0.2,0.2,0.3
				c0.1,0,0.1,0,0.2,0c0,0,0.1,0,0.1,0c0.1,0.1,0,0.6,0,0.8c0,0.2,0.2,0.2,0.3,0.2c0,0,0.1,0,0.1,0c0.2-0.1,0.3,0,0.4,0.1
				c0.1,0.1,0.2,0.1,0.3,0.2c0.1,0.1,0.2,0.1,0.3,0c0.1,0,0.1-0.1,0-0.2c0,0,0-0.1,0-0.1c0.1-0.1,0.2-0.2,0.3-0.3c0,0,0.1,0,0.1,0
				c0.1,0.1,0.2,0.2,0.2,0.3c0,0.1,0,0.2,0.1,0.3c0.1,0.1,0.1,0.3,0.2,0.4c0,0,0,0.1,0,0.1c0,0.2,0,0.4,0,0.6c0,0.1,0,0.2,0.1,0.3
				c0,0,0,0.1,0,0.1c-0.1,0.1-0.2,0.3-0.3,0.4c-0.2,0.1-0.3,0.2-0.3,0.4c0,0.1-0.1,0.2-0.2,0.2c-0.1,0-0.2,0.1-0.2,0.1
				c0,0,0,0,0,0.1c-0.1,0.4-0.1,0.4-0.2,0.6c0,0,0,0.1,0,0.1c0,0.2,0,0.3,0,0.5c0,0.1,0.1,0.2,0.3,0.2c0,0,0,0,0,0c0,0,0,0,0.1-0.1
				c0,0,0,0,0,0.1c0,0.1,0,0.2-0.1,0.2c-0.1,0.1-0.2,0.1-0.3,0.2c-0.1,0.1-0.2,0.2-0.1,0.4c0,0.1,0,0.2,0.1,0.2c0,0,0,0.1,0,0.1
				c0,0.1,0,0.2,0.1,0.2c0.1,0.1,0.2,0.1,0.3,0.2l3.1-0.8C36.9,47.6,37,47.5,37.1,47.5z M41.1,23.3C41.1,23.3,41.1,23.3,41.1,23.3
				c0,0.2-0.1,0.2-0.2,0.2c0,0,0,0,0-0.1C40.9,23.3,41,23.3,41.1,23.3z M32.5,23.3C32.5,23.3,32.5,23.3,32.5,23.3c0-0.1,0-0.1,0-0.1
				c0,0,0-0.1,0,0c0,0,0,0,0,0C32.5,23.2,32.5,23.2,32.5,23.3C32.5,23.3,32.5,23.3,32.5,23.3L32.5,23.3L32.5,23.3z M31.9,22.9
				L31.9,22.9L31.9,22.9L31.9,22.9z M30.2,19.1L30.2,19.1L30.2,19.1L30.2,19.1z M30.2,19.1C30.3,19.1,30.3,19.1,30.2,19.1
				C30.3,19.2,30.3,19.2,30.2,19.1C30.2,19.2,30.2,19.2,30.2,19.1C30.2,19.2,30.2,19.1,30.2,19.1z M25.9,16.2L25.9,16.2L25.9,16.2
				L25.9,16.2z M32.2,40.9C32.2,40.9,32.2,40.9,32.2,40.9c-0.1,0.1-0.4,0.4-0.4,0.3c0,0,0,0,0,0C31.9,41.2,32.1,40.8,32.2,40.9
				C32.2,40.9,32.2,40.9,32.2,40.9z M37.1,42.1C37.1,42.1,37.1,42.2,37.1,42.1c-0.1,0.1-0.1,0-0.2,0C36.9,42,36.9,42,37,41.8
				c0,0,0.1,0,0.1,0c0,0,0,0,0,0c0,0,0,0.1,0,0.1C37.1,42,37.1,42.1,37.1,42.1z M40.3,43L40.3,43L40.3,43L40.3,43z"/>
			<path class="st4" d="M17.6,24.3C17.6,24.3,17.6,24.3,17.6,24.3C17.6,24.3,17.6,24.3,17.6,24.3C17.6,24.4,17.6,24.4,17.6,24.3
				C17.6,24.4,17.6,24.3,17.6,24.3z"/>
			<path class="st4" d="M44.6,25.4C44.6,25.4,44.6,25.4,44.6,25.4C44.6,25.4,44.6,25.4,44.6,25.4C44.6,25.4,44.6,25.4,44.6,25.4z"/>
			<path class="st4" d="M17.1,20.4c0,0-0.1,0-0.2,0.1c0,0.1-0.1,0.1-0.1,0.2c0,0.1,0,0.2,0,0.3c0,0,0,0,0,0c0,0.1,0,0.2,0,0.2
				c0,0.2,0.1,0.4,0.1,0.5c0,0,0,0,0.1,0.1c0,0,0,0,0,0c0,0,0,0,0,0c-0.1-0.2,0-0.5,0.1-0.7c0-0.1,0.1-0.3,0.1-0.4c0,0,0-0.1,0-0.1
				C17.2,20.5,17.2,20.4,17.1,20.4z"/>
			<path class="st4" d="M39,25.3C39,25.3,39,25.3,39,25.3c-0.1,0-0.3,0-0.3,0c0,0-0.7,0.7-0.7,0.7c0.1,0.1,1.9-0.9,2.1-0.9
				c0.1,0,0.2,0.1,0.3,0.1c0,0,0,0,0,0c0,0,0,0,0.1-0.1c0,0,0,0,0,0C40.4,24.9,39.3,25.3,39,25.3z"/>
			<path class="st4" d="M39.6,26.6C39.6,26.6,39.6,26.6,39.6,26.6C39.6,26.6,39.6,26.6,39.6,26.6C39.6,26.6,39.6,26.6,39.6,26.6
				C39.6,26.6,39.6,26.6,39.6,26.6z"/>
			<path class="st4" d="M39.9,26.8c0.1,0,0.1,0,0.2,0c0-0.3,0-0.2-0.2-0.3c-0.1-0.1-0.3-0.1-0.3-0.2c0,0,0,0-0.1,0c0,0,0,0,0,0
				c0,0.1,0.1,0.2,0.2,0.3c0,0,0.1,0,0.1,0C39.8,26.7,39.9,26.8,39.9,26.8z"/>
			<path class="st4" d="M39.9,26.8C39.9,26.8,39.9,26.8,39.9,26.8C39.9,26.8,39.9,26.8,39.9,26.8C39.9,26.8,39.9,26.8,39.9,26.8
				C39.9,26.8,39.9,26.8,39.9,26.8z"/>
			<path class="st4" d="M30.6,33.6C30.6,33.6,30.6,33.6,30.6,33.6C30.6,33.6,30.6,33.6,30.6,33.6C30.6,33.6,30.6,33.6,30.6,33.6
				C30.6,33.6,30.6,33.6,30.6,33.6z"/>
			<path class="st4" d="M30.6,33.7C30.7,33.7,30.7,33.7,30.6,33.7C30.7,33.7,30.7,33.6,30.6,33.7C30.7,33.6,30.6,33.6,30.6,33.7
				C30.6,33.7,30.6,33.7,30.6,33.7z"/>
			<path class="st4" d="M40.8,41.1C40.9,41.1,40.9,41.1,40.8,41.1C40.9,41.1,40.9,41.1,40.8,41.1C40.8,41.1,40.8,41.1,40.8,41.1z"/>
			<polygon class="st4" points="40.3,38.7 40.3,38.7 40.3,38.7 			"/>
			<path class="st4" d="M16.7,22.7C16.7,22.7,16.7,22.7,16.7,22.7C16.8,22.6,16.8,22.6,16.7,22.7z"/>
		</g>
		<g>
			<polygon class="st0" points="32.6,50.7 32.6,13.9 33,14 33.2,14 33.6,14.1 33.6,50.6 33.2,50.6 33,50.7 			"/>
		</g>
		<g>
			<path class="st0" d="M19.9,28.3h-0.1c-0.2,0-0.4,0.2-0.4,0.4v18.4l0.3,0.2l0.2,0.1l0.4,0.3v-19C20.3,28.5,20.2,28.3,19.9,28.3z"
				/>
		</g>
		<path class="st0" d="M19.9,25c-1,0-1.9,0.8-1.9,1.9s0.8,1.9,1.9,1.9c1,0,1.9-0.8,1.9-1.9S20.9,25,19.9,25z M19.9,27.9
			c-0.6,0-1.1-0.5-1.1-1.1s0.5-1.1,1.1-1.1s1.1,0.5,1.1,1.1S20.5,27.9,19.9,27.9z"/>
	</g>
</g>
</svg>
