<?xml version="1.0" encoding="utf-8"?>
<!-- Generator: Adobe Illustrator 26.0.1, SVG Export Plug-In . SVG Version: 6.00 Build 0)  -->
<svg version="1.1" id="Layer_1" xmlns="http://www.w3.org/2000/svg" xmlns:xlink="http://www.w3.org/1999/xlink" x="0px" y="0px"
	 width="556.9px" height="270.1px" viewBox="0 0 556.9 270.1" style="enable-background:new 0 0 556.9 270.1;" xml:space="preserve"
	>
<style type="text/css">
	.st0{fill:#221F1F;}
	.st1{fill:url(#SVGID_1_);}
	.st2{fill-rule:evenodd;clip-rule:evenodd;fill:#2BA6DE;}
	.st3{fill-rule:evenodd;clip-rule:evenodd;fill:url(#SVGID_00000039109721768473788210000007307059038143223464_);}
	.st4{fill-rule:evenodd;clip-rule:evenodd;fill:#1176BB;}
	.st5{fill:#FFFFFF;}
	.st6{fill-rule:evenodd;clip-rule:evenodd;fill:#221F1F;}
</style>
<g>
	<g>
		<g>
			<path class="st0" d="M118.4,247.7c0,0.2,0,0.5-0.1,0.7l0.1,0.3c-12,9.2-23.3,11.4-32.6,11.4c-4.9,0-9.3-0.8-13-1.9
				c-11.5-3.4-18.4-10.2-18.7-10.4l0.1-0.2c-0.1-0.2-0.1-0.5-0.1-0.7V115.4c0-1,0.8-1.8,1.8-1.8h0.6c1,0,1.8,0.8,1.8,1.8v130.1
				c2.6,2,8.7,6.3,16.6,8.6c13.5,3.9,26.3,1.1,39.2-8.2V31.4c0-1,0.8-1.8,1.8-1.8h0.6c1,0,1.8,0.8,1.8,1.8V247.7z"/>
		</g>
		
			<radialGradient id="SVGID_1_" cx="116.8444" cy="15.1596" r="8.7071" gradientTransform="matrix(0.9753 0 0 0.9753 2.3312 3.7698)" gradientUnits="userSpaceOnUse">
			<stop  offset="0.5744" style="stop-color:#151112"/>
			<stop  offset="0.7977" style="stop-color:#151112"/>
			<stop  offset="1" style="stop-color:#151112"/>
		</radialGradient>
		<path class="st1" d="M116.3,10.1c-4.7,0-8.5,3.8-8.5,8.5s3.8,8.5,8.5,8.5c4.7,0,8.5-3.8,8.5-8.5S121,10.1,116.3,10.1z M116.3,23.5
			c-2.7,0-4.9-2.2-4.9-4.9s2.2-4.9,4.9-4.9s4.9,2.2,4.9,4.9S119,23.5,116.3,23.5z"/>
		<path class="st0" d="M103.5,16.4H63.6c-0.1,0-0.1,0-0.2,0c-0.9-3.7-4.3-6.4-8.2-6.4c-4.7,0-8.5,3.8-8.5,8.5c0,4.7,3.8,8.5,8.5,8.5
			c4,0,7.3-2.7,8.2-6.4c0.1,0,0.1,0,0.2,0h39.8c1,0,1.8-0.8,1.8-1.8v-0.6C105.3,17.2,104.5,16.4,103.5,16.4z M55.2,23.5
			c-2.7,0-4.9-2.2-4.9-4.9c0-2.7,2.2-4.9,4.9-4.9c2.7,0,4.9,2.2,4.9,4.9C60.1,21.3,57.9,23.5,55.2,23.5z"/>
		<g>
			<path class="st0" d="M177.4,10.1c-4,0-7.3,2.7-8.2,6.4c-0.1,0-0.2,0-0.3,0h-39.7c-1,0-1.8,0.8-1.8,1.8v0.6c0,1,0.8,1.8,1.8,1.8
				h39.7c0.1,0,0.2,0,0.3,0c0.9,3.7,4.3,6.4,8.2,6.4c4.7,0,8.5-3.8,8.5-8.5C185.9,13.9,182.1,10.1,177.4,10.1z M177.4,23.5
				c-2.7,0-4.9-2.2-4.9-4.9c0-2.7,2.2-4.9,4.9-4.9c2.7,0,4.9,2.2,4.9,4.9C182.3,21.3,180.1,23.5,177.4,23.5z"/>
		</g>
		<circle class="st2" cx="103.6" cy="130.2" r="84.1"/>
		
			<radialGradient id="SVGID_00000174563646894140083270000004312681536791150751_" cx="103.5926" cy="130.2347" r="84.1414" gradientUnits="userSpaceOnUse">
			<stop  offset="3.155340e-02" style="stop-color:#78D5FF"/>
			<stop  offset="0.9587" style="stop-color:#2BA6DE"/>
		</radialGradient>
		
			<circle style="fill-rule:evenodd;clip-rule:evenodd;fill:url(#SVGID_00000174563646894140083270000004312681536791150751_);" cx="103.6" cy="130.2" r="84.1"/>
		
			<image style="display:none;overflow:visible;" width="702" height="702" xlink:href="311F52B5.png"  transform="matrix(0.24 0 0 0.24 20.6955 47.7799)">
		</image>
		<g>
			<path class="st4" d="M148,107C148,107,148,107,148,107C148,106.9,148,106.9,148,107C147.9,107,147.9,107,148,107
				C147.9,107,148,107,148,107z"/>
			<path class="st4" d="M134.4,200.9l15.5-8.2c0.3-0.2,0.6-0.4,0.9-0.6l9.4-9.8c-0.2,0-0.5-0.1-0.6-0.2c-0.7-0.4-1.3-1.1-2.1-1.2
				c-0.1,0-0.2-0.2-0.2-0.3c-0.1-0.3-0.3-0.6-0.5-0.9c-0.4-0.4-0.9-0.9-1.3-1.3c-0.3-0.3-0.7-0.5-1.1-0.6c-0.3-0.1-0.7-0.1-1-0.1
				c-0.2,0-0.4-0.1-0.4-0.4c0-0.7-0.3-1-0.9-1.3c-0.5-0.2-1-0.5-1.5-0.7c-0.2-0.1-0.4-0.2-0.4-0.4c-0.1-0.3,0.2-0.3,0.4-0.3
				c0.1,0,0.1,0,0.2-0.1c0.1-0.1,0.2-0.2,0.1-0.3c0-0.1-0.1-0.1-0.2-0.1c-0.6-0.2-1.2-0.1-1.9-0.1c-0.4,0-0.7-0.1-0.9-0.4
				c-0.1-0.1-0.3-0.1-0.4,0.1c-0.1,0.2-0.1,0.5-0.2,0.6c-0.6,0.6-1.7,1-2.5,0.4c-0.5-0.4-1-0.4-1.6-0.3c-0.6,0.1-1.3,0.1-1.9,0.1
				c-0.3,0-0.5-0.1-0.6-0.4c0-0.1,0-0.1,0-0.2c-0.1-0.5-0.4-0.7-0.8-0.8c-0.3-0.1-0.5-0.1-0.8-0.2c-0.5-0.1-0.9-0.3-1-0.9
				c-0.1-0.2-0.2-0.3-0.4-0.4c-0.2,0-0.6,0.2-0.7,0.4c-0.1,0.1-0.1,0.3-0.1,0.4c0,0.5-0.3,0.7-0.7,0.9c-0.3,0.1-0.6,0.3-1,0.4
				c-0.2,0.1-0.4,0-0.5-0.2c-0.1-0.2-0.2-0.4,0-0.6c0.3-0.3,0.6-0.6,0.9-0.9c0.2-0.2,0-0.6-0.2-0.7c-0.2-0.1-0.4-0.2-0.6-0.1
				c-0.5,0.1-0.9,0.3-1.3,0.7c-0.5,0.5-1,0.8-1.6,1c-0.7,0.2-1.4,0.2-1.9,0.7c-0.1,0.1-0.3,0-0.4,0c-0.5-0.1-0.8,0.2-1.1,0.5
				c-0.4,0.4-0.7,0.9-0.8,1.4c-0.1,0.5-0.3,0.9-0.7,1.2c-0.4,0.3-0.8,0.6-1.1,1c-0.2,0.2-0.2,0.5-0.3,0.7c0,0,0,0,0,0l0,0.1l0-0.1
				c0,0,0,0,0-0.1c-0.1,0-0.3-0.1-0.3-0.1c-0.4-0.3-0.7-0.6-1.1-1c-0.5-0.5-1-0.7-1.6-0.8c-0.8-0.2-1.6-0.2-2.4,0.3
				c-0.2,0.1-0.5,0.2-0.7,0.4c-0.6,0.3-1.1,0.5-1.7,0.2c-1.1-0.1-1.9-0.9-2.5-1.7c-0.4-0.5-0.7-1-1-1.6c-0.1-0.2-0.2-0.4-0.2-0.6
				c0-0.7,0-1.4,0.4-2c0.2-0.2,0.2-0.5,0.2-0.8c0-0.7,0.2-1.3,0.4-2c0.2-0.6,0.7-2.4,0.7-3.1c0-0.1-0.1-0.3-0.2-0.3
				c-0.2-0.1-0.5-0.2-0.8-0.3l0,0c0,0,0,0,0.1,0l-0.1,0l0.1-0.1c-0.5-0.4-0.9-0.7-1.6-0.7c-0.6,0-1.3-0.1-1.9-0.2
				c-0.7-0.2-1.4,0.2-2.1,0.2c-0.6,0-1.1,0.1-1.7,0.1c-0.3,0-0.7-0.1-1-0.2c-0.2,0-0.2-0.2-0.1-0.3c0.6-0.6,0.9-1.9,0.8-2.8
				c0-0.4,0.1-0.8,0.1-1.2c0-0.2,0.1-0.4,0.4-0.4c0.5,0,0.7-0.3,0.8-0.8c0.1-0.5,0.2-1,0.2-1.4c0-0.7,0.2-1.2,0.6-1.7
				c0.3-0.3,0.5-0.6,0.8-1c0.1-0.2,0.2-0.4,0.2-0.6c0.1-0.4-0.3-0.9-0.6-0.9c-0.8,0-1.7-0.2-2.5,0.2c-0.7,0.3-1.3,0.3-2,0.4
				c-0.6,0-1,0.4-1.3,0.9c-0.1,0.3-0.3,0.6-0.4,1c-0.3,1-0.6,2-1.5,2.7c-0.3,0.8-0.8,0.8-1.5,0.5c-0.3-0.1-0.7,0-1,0
				c-0.7,0.2-1.3,0.5-2,0.6c-0.5,0.1-1.1,0.2-1.5-0.3c-0.3-0.4-0.8-1.1-1.2-1.3c-0.6-0.2-0.9-0.1-1.2-0.6c-0.3-0.7-0.7-1.4-1.2-2
				c-0.2-0.3-0.3-0.6-0.4-0.9c-0.1-0.7-0.3-1.3-0.3-2c-0.1-0.4-0.1-0.9-0.1-1.3c0-1.3-0.3-1.3,0-2.6c0.1-0.3,0.1-0.6,0.3-0.8
				c0.5-0.6,0.6-1.2,0.5-1.9c-0.1-1-0.9-3.5-0.6-4.4c0.3-0.8,0.8-1.5,1.7-1.7c1-0.2,1.9-0.6,2.6-1.2c0.5-0.5,1.2-0.6,1.9-0.8
				c0.5-0.2,1.2-0.1,1.7,0.2c0.4,0.2,0.8,0.1,1.3,0c0.4-0.1,0.8,0,1,0.3c0.5,0.8,1.2,0.8,2,0.7c0.4-0.1,0.8-0.3,1.1-0.4
				c0.1-0.4,0.3-0.8,0.3-1.2c0-0.5,0.3-0.6,0.6-0.7c0.3-0.1,0.5-0.1,0.8-0.1c1-0.2,1.9,0.1,2.9,0c1.1-0.1,3.1,1.7,3.8,2.6
				c0.3,0.3,0.6,0.2,1,0.1c0.3-0.1,0.5-0.2,0.8-0.3c0.3-0.1-0.4-0.5-0.2-0.3c0.4,0.5,0.9,1.1,1.3,1.6c0.2,0.3,0.3,0.7,0.2,1
				c-0.1,0.2-0.1,0.4-0.2,0.6c-0.2,0.4-0.2,0.8,0.1,1.2c0.3,1.2,0.4,1.1,0.9,2.2c0.2,0.5,0.6,0.9,1,1.3c0.3,0.4,1,0.3,1.3-0.1
				c0.5-0.8,0.8-1.8,0.9-2.8c0-0.1,0-0.3,0-0.4c-0.2-0.5,0.1,0,0-0.6c-0.1-0.5-0.1-1.1-0.2-1.6c0-0.1,0-0.1-0.1-0.2
				c-0.6-1.6-4.1-3.8-4-5.5c0-0.3,0.1-0.6,0.3-0.8c0.7-0.8,0.9-1.7,2.1-2c0.1,0,0.3-0.1,0.4-0.1c0.4-0.1,0.7-0.4,1-0.7
				c0.2-0.3,0.4-0.6,0.6-0.8c0.2-0.2,0.4-0.4,0.6-0.5c0.5-0.1,0.9-0.4,1.2-0.8c0.6-0.5,1.2-0.9,2-1.1c0.4-0.1,0.6-0.3,0.6-0.7
				c0-0.3,0.2-0.3,0.4-0.4c0.2-0.1,0.5-0.3,0.7-0.5c0.1-0.1,0.3-0.4,0.1-0.6c-0.2-0.3-0.3-0.5-0.1-0.9c0.2-0.5,0.3-1.1,0-1.6
				c-0.1-0.2-0.2-0.4-0.2-0.6c0-0.6,0.1-1.2,0.1-1.8c0,0,0.1-0.1,0.2-0.1c0.1,0,0.1,0,0.2,0.1c0.3,0.3,0.2,0.6,0.2,1
				c0,0.1,0.1,0.2,0.2,0.3c0,0,0.1,0,0.2-0.1c0.4-0.5,0.7-1,1.1-1.5c0.1-0.2,0.2-0.5,0.2-0.8c0-0.2,0-0.4,0-0.6
				c0-0.2,0.1-0.2,0.3-0.2c0.4,0,0.6-0.2,0.9-0.5c0.6-0.6,1-1.3,1.2-2.2c0.1-0.7,0.5-0.9,1.2-0.9c0.4,0,0.8-0.1,1.2-0.2
				c0.2,0,0.4-0.2,0.6-0.3c0.1,0,0.1-0.1,0.1-0.2c0-0.1-0.1-0.2-0.1-0.2c-0.1-0.1-0.3-0.1-0.4-0.1c-0.2,0-0.3-0.1-0.2-0.2
				c0,0,0.1,0,0.2,0c0.1,0,0.1,0,0.2,0c1.2,0.2,2.3-0.4,3.5-0.4c0.2,0,0.4-0.2,0.5-0.3c0.4-0.3,0.4-0.5-0.1-0.8
				c-0.4-0.3-0.6-0.7-0.5-1c0.1-0.5,0.3-0.9,0.5-1.4c0.4-0.8,0.9-1.4,1.7-1.7c0.5-0.2,0.9-0.4,1.3-0.7c0.3-0.3,0.6-0.4,1-0.3
				c0.9,0.1,1.8-0.4,2.7-0.5c0.3-0.1-3.2,2.7-3.1,2.4c0.1-0.2,0.3-0.3,0.4-0.4c0.7-0.2,1.4-0.3,2-0.4c0.1,0,0.2,0.1,0.2,0.1
				c0,0.1,0,0.3-0.1,0.3c-0.2,0.1-0.5,0.2-0.8,0.3c-0.6,0.3,2.5-2.3,2.3-1.7c-0.1,0.2-3.7,3.6-3.6,3.8c0.1,0.4,0.3,0.8,0.7,1
				c0.1,0.1,0.3,0.1,0.4,0.1c0.8-0.4,1.6-0.8,2.2-1.6c0.3-0.4,0.7-0.7,1.2-0.5c1.1-0.3,5.7-3.7,6.7-4.1c0.3-0.1-2.9,2.8-2.6,2.7
				c0.2-0.8,0.9-0.5,1.3-0.8c0.2-0.1,0.4-0.2,0.6-0.3c0.1-0.1,0.2-0.2,0.3-0.2c0.1-0.1,0.2-0.5,0.1-0.6c-0.4-0.4-0.8-0.8-0.5-1.4
				c0,0,0-0.1-0.1-0.2c-0.1-0.2-0.4-0.3-0.5-0.2c-0.7,0.6-1.2,1.3-1.7,2.1c-0.2,0.3-0.4,0.4-0.7,0.3c-0.2-0.1-0.4-0.1-0.6-0.1
				c-0.1,0.1-0.2,0.2-0.4,0.2c-0.2,0-0.3-0.1-0.4-0.2c-0.2,0-0.4-0.1-0.6-0.1c-0.5,0-0.7-0.3-0.7-0.8c-0.8-0.1-1.1-0.5-1.3-1.3
				c-0.1-0.7-0.1-1.3,0.2-2c0.1-0.3,0-0.5-0.4-0.6c-0.1,0-0.3,0-0.4,0c-0.1,0-0.1-0.1-0.2-0.1c0.1,0,0.2-0.1,0.4-0.1
				c0.5-0.2,1-0.4,1.4-0.8c0.2-0.2,0.3-0.7,0.2-1c-0.1-0.2-0.3-0.5-0.5-0.7c-0.6-0.4-1.2-0.7-2-0.5c-1.9,0.5-3.7,0.8-5.4,2
				c0,0,0,0.1,0,0.1l-0.1,0c-0.2,0.2-0.5,0.5-0.7,0.7c0,0,0,0.1,0,0.1c-0.3,0.1-0.6,0.2-0.9,0.3c-0.2,0.1-0.3,0.3-0.5,0.4l0,0.1
				l0-0.2c0.1-0.1,0.3-0.3,0.5-0.4c0.3-0.1,0.6-0.2,0.9-0.3c0,0,0.1-0.1,0.1-0.1c0.1-0.5,0.1-0.6,0.7-0.7c0,0,0,0,0.1-0.1
				c0,0,0,0,0,0c0-0.3,0.1-0.6,0.4-0.8c0.7-0.6,1.5-1.1,2.3-1.3c0.5-0.2-3.5,1.6-3.3,1.1c0-0.1,1.2,0.3,1.3,0.2
				c0.4-0.4,0.8-0.8,1.3-1.1c0.6-0.4,1.4,0.3,2-0.1c1.2-1,3-0.8,4.2,0.2c1.3,1,2.4,0.2,3.6,0.4c0.2,0,0.4,0,0.6-0.1
				c0.2-0.1,0.4-0.2,0.6-0.2c0.5-0.3,1-0.7,1.4-1.2c0.3-0.4,0.7-0.7,1.2-0.8c0.3-0.1,0.7-0.1,1-0.2c1,0,1.8-0.6,2.6-1.1
				c0.4-0.3,0.7-0.7,0.4-1.3c-0.1-0.3-0.2-0.6,0-1c0.1-0.2,0.2-0.5,0.3-0.8c0-0.2,0-0.4-0.1-0.6c-0.3-0.6-0.8-1-1.5-0.9c0,0,0,0,0,0
				l-0.1,0.1l0.1-0.1c0,0,0,0,0,0c0-0.2,0-0.4-0.1-0.6c-0.1-0.4-0.3-0.6-0.7-0.7c-0.2,0-0.4,0-0.6,0c-0.1,0-0.1,0-0.2-0.1
				c0.1-0.1,0.2-0.2,0.2-0.2c0.2-0.1,0.4-0.1,0.6-0.2c0.3-0.1-2.7,2.1-2.9,1.8c-0.2-0.3-0.4-0.6-0.8-0.5c-0.1,0-0.3,0-0.4,0
				c-0.5-0.6-1.3-0.8-1.9-1.2c-0.1-0.1-0.3-0.2-0.3-0.3c-0.2-0.7-0.7-1.2-1.2-1.6c-0.3-0.2-0.5-0.5-0.7-0.8c-0.2-0.3-0.2-0.5,0-0.8
				c0.2-0.3,0.5-0.5,0.7-0.7c0.2-0.2,0.2-0.5,0.1-0.8c-0.3-0.5-1.5,3.1-1.4,2.5c0-0.1-0.1-0.4-0.3-0.5c-0.3-0.2-0.1-0.7-0.4-0.9
				c-0.3-0.2,0-0.5-0.1-0.8c-0.1-0.3,0-0.7-0.1-1c-0.1-0.4-0.2-0.8-0.3-1.2c-0.4-0.9-0.5-1.9-0.6-2.8c0-0.3-0.1-0.6-0.1-0.8
				c0-0.1-0.2-0.2-0.3-0.2c0,0-0.2,0-0.2,0.1c-0.5,0.8-1.2,1.5-1.6,2.4c-0.4,0.9-0.9,1.7-1.9,2.1c-0.2,0.1-0.4,0.4-0.7,0.5
				c-0.3,0.2-0.6,0.3-0.9,0.5c-0.4,0.1-0.7,0-1-0.2c-0.2-0.2-0.4-0.4-0.5-0.7c-0.1-0.3-0.4-0.6-0.7-0.7c-0.4-0.2-0.5-0.7-0.5-1.1
				c0-0.7-1,2.7-1.3,2c-0.1-0.1,0.1-0.4,0.2-0.6c0.2-0.6,0.5-1.3,0.9-1.9c0.1-0.1,0-0.5-0.2-0.5c-0.6-0.1-1-0.7-1.7-0.7
				c-0.2,0-0.5-0.2-0.7-0.4c-0.2-0.1-0.3-0.3-0.3-0.5c0-0.2,0.1-0.4-0.1-0.6c-0.4-0.4-0.7-0.9-0.8-1.4c-0.1-0.3-0.4-0.6-0.6-0.9
				c-0.4-0.5-0.8-0.8-1.4-0.5c-0.3,0.1-0.5,0.1-0.8,0.1c-0.8-0.2-1.7-0.2-2.4-0.7c-0.3-0.2-0.6-0.3-1-0.4c-0.8-0.2-1.7,0.3-2,1.1
				c-0.2,0.5-0.2,0.9,0,1.4c0.2,0.3,0.2,0.7,0,1c-0.3,0.4-0.8,0.9,0.7,2.1l-2.1,1.2l2.6,3.4l-0.1,2.6l-1.3,1.5l-3,1.4v2.7h2.8v2.9
				l-5.2,0.1c-0.8,0-1.4-0.5-1.7-1.2l-1.6-4.3c-0.1-0.2-0.3-0.4-0.5-0.5c-1.6-0.6-1.8-0.7-2-0.9c-0.5-0.7-5-2.2-5.7-2.5
				c-0.7-0.3-3.7-1.2-4.4-1.7c-0.6-0.4-1.7-0.2-2.5-0.6c-0.7-0.4-0.5-0.6-1.1-1c-0.3-0.2-0.4,0.2-0.5-0.1c-3.3-10.3,4.6-9.2,4-9.3
				c0,0,0,0,0,0l-0.1,0.1l-2.5-0.6c0,0,2.6,0.5,2.6,0.5c0.3-0.5,0.6-1,0.5-1.7c-0.1-0.8,5-1,5-1.8c0-0.3,0-0.6-0.1-0.8
				c0-0.1,1.9-0.7,1.7-0.8c-0.3-0.1-0.5-0.1-0.8-0.1c-0.3,0-0.5-0.2-0.6-0.5c0-0.2-0.1-0.4,0-0.6c0.1-0.2,0.3-0.3,0.5-0.3
				c3.8,1,9.3,0.5,8.8-1.2c-0.4-1.5-0.2-2.3-0.8-3.2s-0.9-0.8-2.5-1.4c-0.4-0.1-2.1,1.7-1.8,1.4c0.7-1-2.1,0.5-1.8,1.6
				c-1.4-0.3-0.7,2.1-0.5,1.3c0.1-0.2-1.5,0.4-1.3,0.4c0.3,0-0.7-1.5-0.4-1.5c0.7,0-1.6,0.6-1.6,0c0-0.3-1.2-2-1.3-2.4
				c0,0-2.8,0.9-2.7-0.2c0,0,1.2,0,2.6,0c0.1,0-2.4-0.3-2.4-0.3c0,0-2,0.2-2,0.2c0.9,0.1-0.3-1.9,0.1-2.8c0.1-0.2-1.5-0.2-1.3-0.1
				c0.3,0.1-0.4-1.6-0.1-1.5C100,58,94.3,58.2,94,58l0.1,2.9l2.7-0.1l0,1.5h1.4L98.3,65l-2.8,0l0,2.9l-1.4,0l0-2.7l-9.8,0l-0.1-4.3
				h-2.9v-1.3l-2.8-0.1l0,1.4h-2.8l0,1.5h5.7v1.7l-4.3,0l0,1.3l-1.4,0.1l0,1.2l-1.4,0.1l0-1.4l-5.6,0l-1,0.7l-5.7,4.1l-12.5,9.9
				c1.7-1.3-0.8,0.8-0.8,0.9c0,0.1-0.4,0.7-0.6,0.9c-0.4,0.3-0.5,0.8-0.5,1.3c0,0.1,0.2,0.2,0.2,0.3l0,0c0,0,0,0-0.1-0.1
				c0.1,0,0.1,0,0.1,0c0,0,0-0.1,0.1-0.1c0.1,0.1,0,0.1-0.1,0.1c0,0,0,0,0,0.1c0.3,0.4-5.9,3.3-5.6,3.6c0.2,0.2,0.2,0.5,0.1,0.7
				c-0.1,0.2-0.2,0.4-0.3,0.6c0,0,0,0,0,0c0,0,0,0,0,0.1l0,0c0,0.2-0.1,0.4,0,0.6c0.1,0.4,0.1,0.7-0.1,1c0,0.1-0.1,0.1-0.1,0.2
				l0.6,1.2c0.4,0.2,0.7,0.4,1,0.7c0.2,0.3,0.5,0.6,0.9,0.7c0.4,0.1,0.7,0.3,1,0.5c0.2,0.1,0.3,0.3,0.2,0.5
				c-0.1,0.4-0.2,0.8-0.1,1.2c0.1,0.2,0.2,0.3,0.3,0.4l0.1,0l-0.1,0.1c0,0,0,0,0-0.1l0,0c0,0.1,0.1,0.3,0.1,0.4
				c0.2,0,0.4,0.1,0.6,0.1c0.3,0.1,0.5,0.2,0.6,0.5c0.1,0.5,0.8,1.4,1,1.9c0.2,0.4,0,0.8-0.1,1.2c-0.1,0.1-0.2,0.2-0.3,0.3
				c-0.2,0.1-0.4,0.3-0.5,0.2c-0.6-0.2-1.2-0.2-1.7-0.7l0.1,0.1c0,0,0,0,0,0c0.2,0,0.4,0.1,0.6,0.1c0.4,0,0.6-0.2,0.7-0.6
				c0.1-0.8-0.6-2.1-0.9-2.8c-0.3-0.1-0.6-0.3-0.7-0.7c-0.1-0.3-0.2-0.7-0.3-1c-0.2-0.8-0.6-1.2-1.4-1.4c-0.6-0.1-1-0.5-1.4-0.8
				c-0.3-0.2-0.5-0.5-0.8-0.6c-0.2-0.1-0.4-0.1-0.6-0.2c-0.2,0-0.4,0.2-0.4,0.4c0.1,0.4,0.2,0.8,0.2,1.2c0,0.2,0.1,0.4,0.2,0.6
				c0.3,0.4,0.7,0.7,0.9,1.1c0.8,1.2,2.4,2.7,3.2,4c0.1,0.2,0.3,0.3,0.5,0.4l-0.1,0c0,0,0,0,0,0c-0.6,0.2-1.4,0.1-1.4,0.7
				c0,1.5,6.6-0.3,6.6,0.2c0.1,1.1,5.9-2.4,5.5-1.3c-0.4,1.1-0.9,2.2-1.2,3.3c-0.3,1.1-3.7,0.6-4.3,1.5c-0.6,0.8-0.7,1.8-0.7,2.8
				c0,0.2,0,0.4,0,0.6c0.1,1.1-0.1,2.2-0.8,3.2c-0.2,0.3-0.3,0.7-0.1,1c0.4,0.7,0.5,1.4,0.3,2.2c-0.1,0.3,0,0.7,0,1
				c0,0.2,0.1,0.5,0.1,0.7c0.2,0.5,0.4,1.1,0.7,1.6c0.1,0.2,0.3,0.3,0.5,0.4c0.4,0.2,0.4,0.2,0.3,0.6c-0.1,0.2-0.2,0.4-0.2,0.6
				c0,0.2-0.1,0.4,0,0.6c0.2,0.6,0.5,1.1,0.3,1.8c-0.1,0.2,0,0.4,0.1,0.6c0.3,0.8,3.7,3,4.1,3.8c0.2,0.4,0.3,0.8,0.2,1.2
				c0,0.5,0.1,0.7,0.5,0.8c1.2,0.2,2.1,1,3.1,1.6c0.8,0.5,2.3,0.2,2.4,1.2c0,0.8,0.3,1.5,0.5,2.2c0.4,1.3,1,2.5,1.1,3.8
				c0.1,0.4,0.3,0.8,0.6,1c0.7,0.5,1.1,1.3,1.5,2c0.2,0.4,0.2,0.8-0.1,1.2c-0.2,0.3-0.4,0.3-0.7,0.3c-0.1,0-0.1,0-0.2,0
				c-0.2,0.1-0.3,0.3-0.2,0.5c0.3,0.6,0.8,1.2,1.5,1.5c0.8,0.4,1.5,1.1,2.1,1.7c0.3,0.2,0.4,0.6,0.4,0.9c0,0.3,0,0.7-0.1,1
				c-0.1,0.4,0,0.8,0.3,1.1c1,1.1,1.8,0.9,2.5,2.3c0.1,0.2,0.5,0.2,0.7,0c0.3-0.2,0.4-0.6,0.4-0.9c-0.1-0.5-0.4-0.9-0.7-1.3
				c-0.3-0.3-0.6-0.8-0.7-1.2c-0.1-0.3-0.3-0.7-0.3-1c-0.1-0.5-0.2-1.1-0.3-1.6c-0.1-0.7-0.8-1-1-1.7c-0.2-0.8-0.5-1.6-1-2.2
				c-0.7-0.9-1.1-2.1-1.8-3c-0.1-0.1-0.2-0.4-0.3-0.6c-0.1-1-0.3-2.1,0-3.1c0-0.2,0.2-0.2,0.4-0.2c0.4,0.2,0.7,0.3,1.1,0.5
				c0.4,0.2,0.6,0.4,0.7,0.9c0.2,0.9,0.3,1.8,0.6,2.6c0.5,1.3,1.2,2.5,2.1,3.6c0.2,0.2,0.4,0.4,0.5,0.7c0.1,0.7,0.6,1.1,1.1,1.5
				c0.3,0.3,0.6,0.5,0.9,0.8c0.1,0.1,0.2,0.4,0.1,0.6c-0.1,0.1-0.2,0.2-0.2,0.4c-0.2,0.3-0.1,0.8,0.2,1c0.4,0.3,0.7,0.6,1.1,0.8
				c0.5,0.2,0.8,0.5,0.8,1.1c0,0.2,0.3,0.5,0.5,0.7c2.1,2.2,3.7,1.3,4.4,3.8c0.1,0.2,0,0.4,0,0.6c-0.1,0.3-0.2,0.5-0.3,0.8
				c-0.5,0.7-0.3,1.3,0.1,1.9c0.3,0.6,0.7,1,1.3,1.2c0.6,0.2,0.6,1.1,1,1.6c0.4,0.6,0.9,0.8,1.6,1c0.3,0.1,0.6,0.1,0.8,0.2
				c0.3,0.1,0.5,0.2,0.7,0.4c0.9,0.8,0.9,2.4,2.1,2.7c0.6,0.2,1.7-0.1,2.2,0.3c0.6,0.4,1.3,0.6,1.9,0.8c2.3,0.7,2.3,0.7,4.6-0.2
				c0.7-0.2,1.3-0.2,1.8,0.3c1.1,1,2.3,1.8,3.3,2.9c0.4,0.5,1,0.8,1.6,0.9c0.9,0.1,1.8,0.4,2.6,0.7c1,0.3,2,0.7,3,0.7
				c0.2,0,0.4,0.1,0.5,0.3c0.2,0.6,0.7,1,1.1,1.5c0.4,0.5,0.9,1,1.4,1.6c0.2,0.3,0.4,0.7,0.3,1.2c-0.2,0.7,0.1,1.1,0.8,1.2
				c0.3,0.1,0.5,0.2,0.8,0.2c0.2,0,0.4,0,0.6,0.1c0.5,0.4,0,2.8,0.2,3.4c0.2,0.7,0.7,0.9,1.3,1c0.2,0,0.4,0,0.6,0
				c0.7-0.3,1.3,0,1.7,0.5c0.4,0.4,0.9,0.6,1.3,1c0.5,0.4,0.7,0.4,1.3-0.1c0.2-0.2,0.3-0.4,0.2-0.7c-0.1-0.2-0.2-0.5,0-0.6
				c0.5-0.4,0.9-0.9,1.3-1.4c0.1-0.1,0.4-0.1,0.6,0c0.6,0.3,1,0.7,1.1,1.4c0,0.5,0.2,0.9,0.5,1.3c0.4,0.5,0.5,1.2,0.9,1.6
				c0.1,0.1,0.1,0.4,0.1,0.6c0,0.9,0.1,1.8,0,2.7c-0.1,0.5,0,0.9,0.3,1.4c0.1,0.2,0.1,0.4,0,0.6c-0.4,0.6-0.8,1.3-1.6,1.6
				c-0.8,0.3-1.2,0.9-1.4,1.7c-0.1,0.4-0.4,0.7-0.8,0.9c-0.4,0.2-0.7,0.4-1.1,0.6c-0.1,0.1-0.2,0.2-0.2,0.3
				c-0.4,1.7-0.4,1.7-1.1,2.9c-0.1,0.1-0.2,0.2-0.2,0.4c0,0.7-0.2,1.4,0,2.1c0.1,0.5,0.6,0.9,1.1,1.1c0,0,0.1-0.1,0.2-0.1
				c0.1-0.1,0.2-0.2,0.2-0.3c0,0.1,0.1,0.2,0.1,0.3c0,0.4-0.1,0.7-0.4,0.9c-0.4,0.3-0.8,0.5-1.2,0.8c-0.6,0.5-0.9,1.1-0.7,1.8
				c0.1,0.3,0.2,0.7,0.2,1.1c0,0.2,0,0.4-0.1,0.6c-0.2,0.4,0,0.7,0.3,0.9c0.4,0.3,0.8,0.5,1.3,0.7l14-3.8
				C133.5,201.3,134,201.2,134.4,200.9z M152.7,90.8c0,0,0.1,0.1,0.1,0.2c-0.2,0.6-0.7,0.6-1.1,0.8c-0.1-0.1-0.2-0.2-0.2-0.2
				C151.8,91.1,152.2,90.9,152.7,90.8z M113.5,90.8C113.5,90.8,113.5,90.7,113.5,90.8c0-0.2,0-0.4,0-0.5c0-0.2,0.1-0.2,0.2-0.1
				c0,0,0,0.1,0,0.2C113.7,90.4,113.6,90.6,113.5,90.8C113.5,90.8,113.5,90.8,113.5,90.8l-0.1,0.1L113.5,90.8z M110.7,89.1l0,0.1
				l-0.2-0.1L110.7,89.1z M103,71.7l0.1,0.1l-0.1,0L103,71.7z M103.3,72c0.1-0.1,0.3,0,0.3,0.2c0,0.2-0.1,0.2-0.2,0.2
				c-0.1,0-0.2-0.1-0.3-0.1C103.1,72.2,103.2,72.1,103.3,72z M83.6,58.7l0-0.1l0.2,0.1L83.6,58.7z M112.2,170.9c0,0-0.1,0.1-0.1,0.1
				c-0.4,0.1-1.8,1.8-1.8,1.4c0-0.1,0.1-0.1,0.1-0.1c0.4,0,1.7-1.9,1.8-1.6C112.2,170.8,112.2,170.9,112.2,170.9z M134.7,176.4
				c0,0.1-0.3,0.4-0.4,0.4c-0.1-0.1-0.2-0.1-0.3-0.2c-0.3-0.5-0.3-0.7,0.3-1.4c0.1-0.1,0.2-0.1,0.3-0.1c0,0,0.1,0.1,0.1,0.2
				c0,0.2,0,0.4,0.1,0.7C134.7,176.1,134.7,176.3,134.7,176.4z M149.2,180.5l0.1-0.1l0,0.2L149.2,180.5z"/>
			<path class="st4" d="M45.8,95.7C45.8,95.7,45.8,95.7,45.8,95.7C45.8,95.7,45.8,95.7,45.8,95.7C45.8,95.7,45.8,95.7,45.8,95.7
				C45.8,95.7,45.8,95.7,45.8,95.7z"/>
			<path class="st4" d="M168.4,100.6C168.5,100.6,168.5,100.7,168.4,100.6C168.5,100.7,168.5,100.7,168.4,100.6
				C168.5,100.7,168.5,100.6,168.4,100.6z"/>
			<path class="st4" d="M43.5,77.7c-0.2-0.1-0.6,0.1-0.7,0.2c-0.2,0.3-0.4,0.6-0.3,1c0,0.4,0.1,0.8,0.1,1.2c0,0,0,0,0,0
				c0,0.3,0.1,0.7,0.1,1c0,0.9,0.3,1.6,0.7,2.4c0.1,0.1,0.2,0.2,0.3,0.2c0,0,0.1,0,0.2,0c0.1,0,0.1-0.1,0.1-0.2
				c-0.4-1.1-0.1-2.2,0.2-3.2c0.2-0.6,0.4-1.2,0.6-1.8c0-0.1,0-0.3-0.1-0.4C44.2,78,43.8,77.9,43.5,77.7z"/>
			<path class="st4" d="M143.3,100c-0.1,0-0.2,0-0.3,0.1c-0.2,0.1-1.1-0.2-1,0c0.1,0.1-3.3,3.2-3.3,3.3c0.4,0.4,8.8-4.2,9.4-4
				c0.5,0.2,1,0.3,1.6,0.5c0.1,0,0.1,0,0.2,0c0.1-0.1,0.2-0.2,0.3-0.3c0,0,0-0.2,0-0.2C149.4,98.2,144.7,100.2,143.3,100z"/>
			<path class="st4" d="M145.9,106.1C145.9,106.1,145.9,106.1,145.9,106.1C145.8,106.1,145.8,106.1,145.9,106.1
				C145.9,106.1,145.9,106.2,145.9,106.1C145.9,106.1,145.9,106.1,145.9,106.1z"/>
			<path class="st4" d="M147.1,107c0.3,0,0.5,0,0.8,0c0.1-1.3,0.2-1-0.8-1.4c-0.6-0.3-1.2-0.4-1.6-0.9c0,0-0.2,0.1-0.3,0.1
				c0,0-0.1,0.1,0,0.2c0.2,0.4,0.5,0.8,0.7,1.2c0.2,0.1,0.5,0.1,0.7,0.2C146.9,106.4,147.1,106.6,147.1,107z"/>
			<path class="st4" d="M147.1,107C147.1,107,147.1,107,147.1,107C147.1,107,147.1,107,147.1,107C147.2,107,147.2,107,147.1,107
				C147.2,107,147.1,107,147.1,107z"/>
			<path class="st4" d="M104.9,137.8C104.9,137.8,104.9,137.8,104.9,137.8C104.9,137.8,104.8,137.8,104.9,137.8
				C104.8,137.8,104.8,137.8,104.9,137.8C104.8,137.8,104.9,137.8,104.9,137.8z"/>
			<path class="st4" d="M105.2,138.3c0.2,0.1,0.3,0,0.3-0.1c0-0.1,0-0.2-0.1-0.2c-0.2-0.1-0.4-0.1-0.5-0.1
				C104.9,138,105,138.2,105.2,138.3z"/>
			<path class="st4" d="M151.5,171.8c0.2,0.1,0.2,0.1,0.2-0.1c0,0-0.1-0.1-0.2,0C151.6,171.7,151.6,171.8,151.5,171.8z"/>
			<polygon class="st4" points="149.2,160.9 149.3,160.9 149.3,160.8 			"/>
			<path class="st4" d="M41.8,88c0.1,0,0.2,0.1,0.2,0.1C42,88,42,87.8,41.8,88z"/>
		</g>
		<g>
			<polygon class="st5" points="114.2,215.6 114.2,48.3 115.9,48.5 116.6,48.6 118.4,48.9 118.4,215 116.6,215.3 115.9,215.4 			"/>
		</g>
		<path class="st5" d="M64.7,106.9c0-4.7-3.8-8.5-8.5-8.5c-4.7,0-8.5,3.8-8.5,8.5c0,4,2.7,7.3,6.4,8.2c0,0.1,0,0.2,0,0.2v83.6
			l1.5,1.1l0.8,0.6l1.9,1.3v-86.6c0-0.1,0-0.2,0-0.2C62,114.2,64.7,110.9,64.7,106.9z M56.2,111.9c-2.7,0-4.9-2.2-4.9-4.9
			c0-2.7,2.2-4.9,4.9-4.9c2.7,0,4.9,2.2,4.9,4.9C61.2,109.7,58.9,111.9,56.2,111.9z"/>
	</g>
	<g>
		<g>
			<path class="st0" d="M217.1,130.2V67.3h12.7v62.9H217.1z"/>
			<path class="st0" d="M256.1,130.2V77.9h-18.7V67.3h50v10.6h-18.6v52.3H256.1z"/>
			<path class="st0" d="M319.6,130.2V67.3h12.7v62.9H319.6z"/>
			<path class="st0" d="M344.4,67.3h23.2c5.2,0,9.2,0.4,12,1.2c3.7,1.1,6.9,3,9.5,5.8c2.6,2.8,4.6,6.2,6,10.2c1.4,4,2.1,9,2.1,14.9
				c0,5.2-0.6,9.6-1.9,13.4c-1.6,4.6-3.8,8.3-6.7,11.1c-2.2,2.1-5.2,3.8-8.9,5c-2.8,0.9-6.6,1.3-11.3,1.3h-23.9V67.3z M357.1,77.9
				v41.7h9.5c3.5,0,6.1-0.2,7.7-0.6c2.1-0.5,3.8-1.4,5.1-2.6c1.4-1.2,2.5-3.3,3.3-6.1c0.9-2.8,1.3-6.7,1.3-11.5
				c0-4.9-0.4-8.6-1.3-11.2c-0.9-2.6-2.1-4.6-3.6-6.1c-1.5-1.5-3.5-2.4-5.9-3c-1.8-0.4-5.3-0.6-10.4-0.6H357.1z"/>
			<path class="st0" d="M405.4,99.1c0-6.4,1-11.8,2.9-16.1c1.4-3.2,3.4-6.1,5.9-8.6c2.5-2.5,5.2-4.4,8.1-5.7
				c3.9-1.7,8.4-2.5,13.6-2.5c9.3,0,16.7,2.9,22.3,8.6c5.6,5.8,8.4,13.8,8.4,24c0,10.2-2.8,18.1-8.3,23.9
				c-5.5,5.7-12.9,8.6-22.2,8.6c-9.4,0-16.8-2.9-22.3-8.6C408.2,117,405.4,109.2,405.4,99.1z M418.5,98.7c0,7.1,1.6,12.5,4.9,16.2
				c3.3,3.7,7.5,5.5,12.5,5.5s9.2-1.8,12.5-5.5c3.2-3.6,4.9-9.1,4.9-16.4c0-7.2-1.6-12.6-4.7-16.1c-3.2-3.5-7.4-5.3-12.6-5.3
				c-5.2,0-9.5,1.8-12.7,5.4C420.1,86.1,418.5,91.5,418.5,98.7z"/>
			<path class="st0" d="M476.7,130.2V67.8h12.7v51.8H521v10.6H476.7z"/>
		</g>
		<g>
			<path class="st0" d="M226.1,165.4v-23.6h-9v-3.2h21.7v3.2h-9.1v23.6H226.1z"/>
			<path class="st0" d="M242.5,165.4v-26.7h19.8v3.2h-16.2v8.2h15.2v3.2h-15.2v9.1H263v3.2H242.5z"/>
			<path class="st0" d="M287.4,156l3.6,0.9c-0.8,3-2.2,5.2-4.2,6.7c-2,1.5-4.5,2.2-7.3,2.2c-2.5,0-4.7-0.5-6.5-1.5
				c-1.8-1-3.3-2.6-4.4-4.8c-1.1-2.2-1.7-4.8-1.7-7.8c0-2.9,0.6-5.4,1.7-7.5c1.1-2,2.7-3.6,4.7-4.6c2-1,4.2-1.6,6.6-1.6
				c2.6,0,4.9,0.7,6.8,2c1.9,1.3,3.2,3.2,4,5.8l-3.6,0.8c-1.2-3.7-3.7-5.6-7.3-5.6c-1.8,0-3.4,0.4-4.7,1.1c-1.3,0.7-2.4,1.9-3.2,3.5
				c-0.8,1.6-1.2,3.6-1.2,6c0,3.7,0.8,6.4,2.4,8.2c1.6,1.8,3.8,2.7,6.4,2.7c2,0,3.7-0.6,5.1-1.7C286,160,286.9,158.3,287.4,156z"/>
			<path class="st0" d="M295.6,165.4v-26.7h3.6v11h14.2v-11h3.6v26.7h-3.6v-12.6h-14.2v12.6H295.6z"/>
			<path class="st0" d="M323.1,165.4v-26.7h3.7l14.4,21v-21h3.5v26.7h-3.7l-14.4-21v21H323.1z"/>
			<path class="st0" d="M349.8,152.4c0-4.6,1.3-8.1,3.8-10.5c2.5-2.5,5.6-3.7,9.4-3.7c2.4,0,4.6,0.5,6.6,1.6c2,1.1,3.6,2.7,4.7,4.8
				c1.2,2.1,1.7,4.6,1.7,7.5c0,4-1.1,7.2-3.4,9.7c-2.5,2.7-5.7,4.1-9.7,4.1c-4,0-7.3-1.4-9.8-4.2C350.9,159.1,349.8,156,349.8,152.4
				z M353.5,152.4c0,3.3,0.9,5.9,2.7,7.7c1.8,1.8,4,2.7,6.6,2.7c2.7,0,4.9-0.9,6.7-2.8c1.8-1.8,2.7-4.5,2.7-8.1
				c0-2.3-0.5-4.4-1.4-6.2c-0.7-1.4-1.8-2.5-3.2-3.3c-1.4-0.8-3-1.3-4.7-1.3c-2.7,0-5,0.9-6.8,2.7
				C354.4,145.8,353.5,148.6,353.5,152.4z"/>
			<path class="st0" d="M380.4,165.4v-26.7h3.6v23.6h13.5v3.2H380.4z"/>
			<path class="st0" d="M400.8,152.4c0-4.6,1.3-8.1,3.8-10.5c2.5-2.5,5.6-3.7,9.4-3.7c2.4,0,4.6,0.5,6.6,1.6c2,1.1,3.6,2.7,4.7,4.8
				c1.2,2.1,1.7,4.6,1.7,7.5c0,4-1.1,7.2-3.4,9.7c-2.5,2.7-5.7,4.1-9.7,4.1c-4,0-7.3-1.4-9.8-4.2C402,159.1,400.8,156,400.8,152.4z
				 M404.6,152.4c0,3.3,0.9,5.9,2.7,7.7c1.8,1.8,4,2.7,6.6,2.7c2.7,0,4.9-0.9,6.7-2.8c1.8-1.8,2.7-4.5,2.7-8.1
				c0-2.3-0.5-4.4-1.4-6.2c-0.7-1.4-1.8-2.5-3.2-3.3c-1.4-0.8-3-1.3-4.7-1.3c-2.7,0-5,0.9-6.8,2.7
				C405.5,145.8,404.6,148.6,404.6,152.4z"/>
			<path class="st0" d="M444.5,154.9v-3.2l11.6,0v9.9c-1.8,1.4-3.6,2.4-5.5,3.1c-1.9,0.7-3.9,1-5.9,1c-2.7,0-5.1-0.5-7.2-1.6
				c-2.1-1.1-3.8-2.6-5-4.7c-1.2-2.1-1.8-4.5-1.8-7.4c0-2.9,0.6-5.5,1.8-7.6c1.2-2.2,2.8-3.8,4.8-4.8c2-1,4.3-1.5,7.1-1.5
				c2,0,3.8,0.3,5.3,0.9c1.5,0.6,2.7,1.4,3.7,2.5c1,1.1,1.7,2.6,2.2,4.5l-3.3,0.9c-0.4-1.5-1-2.6-1.7-3.4c-0.7-0.7-1.5-1.3-2.6-1.8
				c-1.1-0.4-2.3-0.6-3.7-0.6c-2,0-3.7,0.4-5.1,1.2c-1.4,0.8-2.6,2-3.5,3.6c-0.9,1.6-1.3,3.6-1.3,6c0,3.6,0.9,6.3,2.8,8
				c1.9,1.8,4.3,2.7,7.3,2.7c1.4,0,2.9-0.3,4.4-0.8c1.5-0.5,2.7-1.2,3.6-2v-5H444.5z"/>
			<path class="st0" d="M462.1,165.4v-26.7h3.6v26.7H462.1z"/>
			<path class="st0" d="M472.1,165.4v-26.7h19.8v3.2h-16.2v8.2h15.2v3.2h-15.2v9.1h16.8v3.2H472.1z"/>
			<path class="st0" d="M496.4,156.8l3.4-0.3c0.2,1.5,0.6,2.6,1.2,3.4c0.6,0.8,1.6,1.5,2.8,2c1.2,0.5,2.6,0.7,4.1,0.7
				c2.2,0,3.8-0.4,5-1.3c1.2-0.8,1.8-1.9,1.8-3.3c0-0.8-0.2-1.5-0.6-2.1c-0.4-0.6-1.1-1.1-2-1.4c-0.9-0.4-2.8-0.9-5.7-1.6
				c-2.6-0.6-4.4-1.2-5.5-1.9c-1.1-0.6-1.9-1.4-2.6-2.4c-0.6-1-0.9-2-0.9-3.2c0-2.2,0.9-3.9,2.6-5.3c1.7-1.4,4.1-2.1,7.1-2.1
				c2,0,3.8,0.3,5.3,1c1.5,0.6,2.7,1.6,3.6,2.8c0.8,1.2,1.3,2.6,1.4,4.3l-3.5,0.3c-0.2-1.7-0.8-3-1.9-3.9c-1.1-0.8-2.7-1.3-4.7-1.3
				c-2.1,0-3.6,0.4-4.7,1.1c-1.1,0.7-1.6,1.7-1.6,2.9c0,1.1,0.4,1.9,1.2,2.5c0.8,0.6,2.6,1.2,5.3,1.8c2.7,0.6,4.6,1.1,5.7,1.6
				c1.7,0.7,2.9,1.6,3.8,2.7c0.9,1.1,1.3,2.4,1.3,4c0,1.5-0.4,2.9-1.3,4.2c-0.9,1.3-2.1,2.2-3.7,2.9c-1.5,0.7-3.4,1-5.6,1
				c-3.4,0-6.1-0.8-8.1-2.4C497.5,161.8,496.4,159.6,496.4,156.8z"/>
		</g>
		<rect x="217.1" y="183.3" class="st6" width="304" height="4.2"/>
		<g>
			<path class="st0" d="M527.6,193.9c-4.7,0-8.5-3.8-8.5-8.5s3.8-8.5,8.5-8.5c4.7,0,8.5,3.8,8.5,8.5S532.3,193.9,527.6,193.9z
				 M527.6,179.6c-3.2,0-5.7,2.6-5.7,5.7s2.6,5.7,5.7,5.7s5.7-2.6,5.7-5.7S530.8,179.6,527.6,179.6z"/>
		</g>
		<g>
			<path class="st0" d="M217.1,207.8v-12.5h1.6v12.5H217.1z"/>
			<path class="st0" d="M223.5,207.8v-12.5h4.2c1,0,1.8,0.1,2.4,0.2c0.7,0.2,1.3,0.6,1.8,1.1c0.5,0.5,0.9,1.2,1.2,2
				c0.3,0.8,0.4,1.8,0.4,2.9c0,1.4-0.2,2.6-0.7,3.6c-0.5,1-1.1,1.7-1.9,2.1c-0.8,0.4-1.8,0.6-3,0.6H223.5z M225.1,206.4h2.6
				c1,0,1.8-0.1,2.4-0.4c0.5-0.3,1-0.7,1.2-1.4c0.4-0.8,0.6-1.9,0.6-3c0-1.3-0.2-2.3-0.6-3c-0.4-0.7-0.9-1.2-1.6-1.5
				c-0.4-0.2-1.1-0.2-2-0.2h-2.5V206.4z"/>
			<path class="st0" d="M237.4,201.8c0-2.1,0.6-3.8,1.7-4.9c1.1-1.1,2.5-1.7,4.1-1.7c1.1,0,2,0.3,2.9,0.8c0.9,0.5,1.6,1.3,2.1,2.2
				c0.5,1,0.8,2.1,0.8,3.5c0,1.8-0.5,3.4-1.5,4.5c-1.1,1.3-2.5,1.9-4.3,1.9c-1.8,0-3.2-0.7-4.3-2
				C237.9,204.9,237.4,203.4,237.4,201.8z M239,201.8c0,1.5,0.4,2.7,1.2,3.6c0.8,0.8,1.8,1.3,2.9,1.3c1.2,0,2.2-0.4,3-1.3
				c0.8-0.9,1.2-2.1,1.2-3.8c0-1.1-0.2-2-0.6-2.9c-0.3-0.6-0.8-1.2-1.4-1.6c-0.6-0.4-1.3-0.6-2.1-0.6c-1.2,0-2.2,0.4-3,1.3
				C239.4,198.7,239,200,239,201.8z"/>
			<path class="st0" d="M252.9,207.8v-12.5h1.6v11h6v1.5H252.9z"/>
			<path class="st0" d="M270.8,207.8v-12.5h8.2v1.5h-6.6v3.9h5.7v1.5h-5.7v5.7H270.8z"/>
			<path class="st0" d="M282.6,201.8c0-2.1,0.6-3.8,1.7-4.9c1.1-1.1,2.5-1.7,4.1-1.7c1.1,0,2,0.3,2.9,0.8c0.9,0.5,1.6,1.3,2.1,2.2
				c0.5,1,0.8,2.1,0.8,3.5c0,1.8-0.5,3.4-1.5,4.5c-1.1,1.3-2.5,1.9-4.3,1.9c-1.8,0-3.2-0.7-4.3-2
				C283.1,204.9,282.6,203.4,282.6,201.8z M284.3,201.8c0,1.5,0.4,2.7,1.2,3.6c0.8,0.8,1.8,1.3,2.9,1.3c1.2,0,2.2-0.4,3-1.3
				c0.8-0.9,1.2-2.1,1.2-3.8c0-1.1-0.2-2-0.6-2.9c-0.3-0.6-0.8-1.2-1.4-1.6c-0.6-0.4-1.3-0.6-2.1-0.6c-1.2,0-2.2,0.4-3,1.3
				C284.7,198.7,284.3,200,284.3,201.8z"/>
			<path class="st0" d="M298.3,207.8v-12.5h5.4c1.1,0,2,0.1,2.5,0.3c0.5,0.2,1,0.6,1.3,1.2c0.3,0.5,0.5,1.2,0.5,1.9
				c0,0.9-0.3,1.7-0.9,2.3s-1.4,1-2.5,1.1c0.5,0.2,0.8,0.5,1,0.7c0.5,0.5,0.9,1,1.3,1.6l2.1,3.4h-2l-1.6-2.6c-0.6-1-1.1-1.7-1.4-2.1
				c-0.3-0.4-0.6-0.6-0.9-0.7c-0.3-0.1-0.7-0.2-1.3-0.2h-1.9v5.5H298.3z M299.9,200.9h3.4c0.8,0,1.3-0.1,1.7-0.2
				c0.4-0.2,0.7-0.4,0.9-0.7c0.2-0.3,0.3-0.7,0.3-1.1c0-0.6-0.2-1.1-0.7-1.5c-0.4-0.4-1.1-0.5-1.9-0.5h-3.8V200.9z"/>
			<path class="st0" d="M317.1,207.8l4.7-12.5h1.7l5,12.5h-1.8l-1.4-3.8h-5.1l-1.3,3.8H317.1z M320.6,202.7h4.1l-1.3-3.5
				c-0.4-1.1-0.7-1.9-0.9-2.6c-0.2,0.8-0.4,1.6-0.7,2.4L320.6,202.7z"/>
			<path class="st0" d="M331.7,207.8v-12.5h1.6v11h6v1.5H331.7z"/>
			<path class="st0" d="M343.2,207.8v-12.5h1.6v11h6v1.5H343.2z"/>
			<path class="st0" d="M364,207.8v-5.3l-4.7-7.2h2l2.4,3.8c0.5,0.7,0.9,1.4,1.2,2.1c0.4-0.7,0.8-1.4,1.3-2.2l2.4-3.7h1.9l-4.8,7.2
				v5.3H364z"/>
			<path class="st0" d="M373.5,201.8c0-2.1,0.6-3.8,1.7-4.9c1.1-1.1,2.5-1.7,4.1-1.7c1.1,0,2,0.3,2.9,0.8c0.9,0.5,1.6,1.3,2.1,2.2
				c0.5,1,0.8,2.1,0.8,3.5c0,1.8-0.5,3.4-1.5,4.5c-1.1,1.3-2.5,1.9-4.3,1.9c-1.8,0-3.2-0.7-4.3-2C374,204.9,373.5,203.4,373.5,201.8
				z M375.2,201.8c0,1.5,0.4,2.7,1.2,3.6c0.8,0.8,1.8,1.3,2.9,1.3c1.2,0,2.2-0.4,3-1.3c0.8-0.9,1.2-2.1,1.2-3.8c0-1.1-0.2-2-0.6-2.9
				c-0.3-0.6-0.8-1.2-1.4-1.6c-0.6-0.4-1.3-0.6-2.1-0.6c-1.2,0-2.2,0.4-3,1.3C375.6,198.7,375.2,200,375.2,201.8z"/>
			<path class="st0" d="M397.1,195.4h1.6v7.2c0,1.2-0.1,2.2-0.4,3c-0.3,0.8-0.8,1.4-1.5,1.8c-0.7,0.4-1.7,0.7-2.8,0.7
				c-1.6,0-2.8-0.4-3.6-1.2c-0.8-0.8-1.2-2.2-1.2-4.3v-7.2h1.6v7.2c0,1.1,0.1,1.9,0.3,2.5s0.5,0.9,1,1.2c0.5,0.3,1,0.4,1.7,0.4
				c1.1,0,2-0.3,2.5-0.8c0.5-0.5,0.8-1.6,0.8-3.2V195.4z"/>
			<path class="st0" d="M403.5,207.8v-12.5h5.4c1.1,0,2,0.1,2.5,0.3s1,0.6,1.3,1.2c0.3,0.5,0.5,1.2,0.5,1.9c0,0.9-0.3,1.7-0.9,2.3
				c-0.6,0.6-1.4,1-2.5,1.1c0.5,0.2,0.8,0.5,1,0.7c0.5,0.5,0.9,1,1.3,1.6l2.1,3.4h-2l-1.6-2.6c-0.6-1-1.1-1.7-1.4-2.1
				c-0.3-0.4-0.6-0.6-0.9-0.7c-0.3-0.1-0.7-0.2-1.3-0.2h-1.9v5.5H403.5z M405.1,200.9h3.4c0.8,0,1.3-0.1,1.7-0.2
				c0.4-0.2,0.7-0.4,0.9-0.7c0.2-0.3,0.3-0.7,0.3-1.1c0-0.6-0.2-1.1-0.7-1.5c-0.4-0.4-1.1-0.5-1.9-0.5h-3.8V200.9z"/>
			<path class="st0" d="M424.8,207.8v-12.5h1.6v12.5H424.8z"/>
			<path class="st0" d="M434.4,207.8v-11h-4v-1.5h9.6v1.5h-4v11H434.4z"/>
			<path class="st0" d="M450.1,207.8v-12.5h1.6l6.4,9.8v-9.8h1.5v12.5H458l-6.4-9.8v9.8H450.1z"/>
			<path class="st0" d="M464.5,207.8v-12.5h8.8v1.5h-7.2v3.8h6.7v1.5h-6.7v4.2h7.4v1.5H464.5z"/>
			<path class="st0" d="M477.8,207.8v-12.5h8.8v1.5h-7.2v3.8h6.7v1.5h-6.7v4.2h7.4v1.5H477.8z"/>
			<path class="st0" d="M491.1,207.8v-12.5h4.2c1,0,1.8,0.1,2.4,0.2c0.7,0.2,1.3,0.6,1.8,1.1c0.5,0.5,0.9,1.2,1.2,2
				c0.3,0.8,0.4,1.8,0.4,2.9c0,1.4-0.2,2.6-0.7,3.6c-0.5,1-1.1,1.7-1.9,2.1c-0.8,0.4-1.8,0.6-3,0.6H491.1z M492.7,206.4h2.6
				c1,0,1.8-0.1,2.4-0.4c0.5-0.3,1-0.7,1.2-1.4c0.4-0.8,0.6-1.9,0.6-3c0-1.3-0.2-2.3-0.6-3c-0.4-0.7-0.9-1.2-1.6-1.5
				c-0.4-0.2-1.1-0.2-2-0.2h-2.5V206.4z"/>
			<path class="st0" d="M504.9,203.8l1.5-0.1c0.1,0.7,0.3,1.2,0.5,1.6c0.3,0.4,0.7,0.7,1.2,0.9c0.5,0.2,1.1,0.3,1.8,0.3
				c1,0,1.7-0.2,2.2-0.6c0.5-0.4,0.8-0.9,0.8-1.5c0-0.4-0.1-0.7-0.3-1s-0.5-0.5-0.9-0.7c-0.4-0.2-1.2-0.4-2.5-0.7
				c-1.1-0.3-2-0.6-2.4-0.9c-0.5-0.3-0.9-0.7-1.1-1.1c-0.3-0.4-0.4-0.9-0.4-1.5c0-1,0.4-1.8,1.2-2.5c0.8-0.6,1.8-1,3.1-1
				c0.9,0,1.7,0.2,2.4,0.5c0.7,0.3,1.2,0.7,1.6,1.3c0.4,0.6,0.6,1.2,0.6,2l-1.5,0.1c-0.1-0.8-0.4-1.4-0.9-1.8
				c-0.5-0.4-1.2-0.6-2.1-0.6c-0.9,0-1.6,0.2-2.1,0.5c-0.5,0.3-0.7,0.8-0.7,1.3c0,0.5,0.2,0.9,0.5,1.2c0.3,0.3,1.1,0.6,2.4,0.8
				c1.2,0.3,2,0.5,2.5,0.7c0.7,0.3,1.3,0.7,1.7,1.3c0.4,0.5,0.6,1.1,0.6,1.9c0,0.7-0.2,1.4-0.6,2c-0.4,0.6-0.9,1-1.6,1.3
				c-0.7,0.3-1.5,0.5-2.5,0.5c-1.5,0-2.7-0.4-3.6-1.1C505.4,206.1,504.9,205.1,504.9,203.8z"/>
		</g>
	</g>
</g>
</svg>
