<svg width="21" height="20" viewBox="0 0 21 20" fill="none" xmlns="http://www.w3.org/2000/svg">
<path d="M2.16669 13.3333C2.16669 10.9763 2.16669 9.79781 2.89892 9.06558C3.63115 8.33334 4.80966 8.33334 7.16669 8.33334H13.8334C16.1904 8.33334 17.3689 8.33334 18.1011 9.06558C18.8334 9.79781 18.8334 10.9763 18.8334 13.3333C18.8334 15.6904 18.8334 16.8689 18.1011 17.6011C17.3689 18.3333 16.1904 18.3333 13.8334 18.3333H7.16669C4.80966 18.3333 3.63115 18.3333 2.89892 17.6011C2.16669 16.8689 2.16669 15.6904 2.16669 13.3333Z" stroke="#1C274C" stroke-width="1.5"/>
<circle cx="10.5" cy="13.3333" r="1.66667" stroke="#1C274C" stroke-width="1.5"/>
<path d="M5.5 8.33332V6.66666C5.5 3.90523 7.73858 1.66666 10.5 1.66666C13.2614 1.66666 15.5 3.90523 15.5 6.66666V8.33332" stroke="#1C274C" stroke-width="1.5" stroke-linecap="round"/>
</svg>
