<svg width="720" height="1024" viewBox="0 0 720 1024" fill="none" xmlns="http://www.w3.org/2000/svg">
<g clip-path="url(#clip0_1192_1272)">
<rect width="720" height="1024" fill="#F0F9FF"/>
<circle cx="20" cy="20" r="20" transform="matrix(-1 0 0 1 511 707)" fill="#75C8FF" fill-opacity="0.2"/>
<circle cx="20" cy="20" r="20" transform="matrix(-1 0 0 1 626 -19)" fill="#75C8FF" fill-opacity="0.2"/>
<rect width="9" height="9" transform="matrix(-1 0 0 1 382 166)" fill="#75C8FF" fill-opacity="0.2"/>
<rect width="9" height="9" transform="matrix(-1 0 0 1 652 537)" fill="#75C8FF" fill-opacity="0.2"/>
<rect width="9" height="9" transform="matrix(-1 0 0 1 77 459)" fill="#75C8FF" fill-opacity="0.2"/>
<rect width="9" height="9" transform="matrix(-1 0 0 1 710 52)" fill="#75C8FF" fill-opacity="0.2"/>
<rect width="9" height="9" transform="matrix(-1 0 0 1 135 11)" fill="#75C8FF" fill-opacity="0.2"/>
<rect width="33.1922" height="33.1922" transform="matrix(-1 8.74228e-08 8.74228e-08 1 217.565 63.208)" fill="#75C8FF" fill-opacity="0.2"/>
<rect width="33.1922" height="33.1922" transform="matrix(-1 8.74228e-08 8.74228e-08 1 720.192 924.808)" fill="#75C8FF" fill-opacity="0.2"/>
<rect width="32" height="32" transform="matrix(-0.707107 0.707107 0.707107 0.707107 687 326.373)" fill="#75C8FF" fill-opacity="0.2"/>
<rect width="32" height="32" transform="matrix(-0.707107 0.707107 0.707107 0.707107 210.627 423.745)" fill="#75C8FF" fill-opacity="0.2"/>
<circle cx="20" cy="20" r="20" transform="matrix(-1 0 0 1 68 254)" fill="#75C8FF" fill-opacity="0.2"/>
<g style="mix-blend-mode:multiply" opacity="0.2">
<rect width="79" height="76" transform="matrix(-1 0 0 1 79 948)" fill="#C2E7FF"/>
<rect width="39" height="76" transform="matrix(-1 0 0 1 118 948)" fill="#A3DAFE"/>
<rect width="39" height="76" transform="matrix(-1 0 0 1 157 948)" fill="#C2E7FF"/>
<rect width="84" height="76" transform="matrix(-1 0 0 1 241 948)" fill="#75C8FF"/>
<rect width="29" height="155" transform="matrix(-1 0 0 1 270 869)" fill="#A3DAFE"/>
<rect width="29" height="155" transform="matrix(-1 0 0 1 299 869)" fill="#75C8FF"/>
<rect width="29" height="155" transform="matrix(-1 0 0 1 328 869)" fill="#90D0FB"/>
<rect width="77" height="11" transform="matrix(-1 0 0 1 405 1013)" fill="#75C8FF"/>
<rect width="77" height="8" transform="matrix(-1 0 0 1 405 1005)" fill="#90D0FB"/>
<rect width="77" height="8" transform="matrix(-1 0 0 1 405 997)" fill="#A3DAFE"/>
<rect width="77" height="8" transform="matrix(-1 0 0 1 405 989)" fill="#C2E7FF"/>
<rect width="77" height="8" transform="matrix(-1 0 0 1 405 981)" fill="#E0F3FF"/>
<rect width="77" height="8" transform="matrix(-1 0 0 1 405 973)" fill="#C2E7FF"/>
<rect width="77" height="8" transform="matrix(-1 0 0 1 405 965)" fill="#A3DAFE"/>
<rect width="77" height="8" transform="matrix(-1 0 0 1 405 957)" fill="#90D0FB"/>
<rect width="77" height="8" transform="matrix(-1 0 0 1 405 949)" fill="#75C8FF"/>
<rect width="32" height="32" transform="matrix(-1 0 0 1 380 894)" fill="#75C8FF"/>
<rect width="32" height="32" transform="matrix(-1 0 0 1 137 651)" fill="#75C8FF"/>
<rect width="32" height="32" transform="matrix(-0.707107 0.707107 0.707107 0.707107 199.373 726)" fill="#A3DAFE"/>
<rect width="32" height="32" transform="matrix(-1 0 0 1 241 916)" fill="#C2E7FF"/>
<rect width="78" height="78" transform="matrix(-1 0 0 1 78 870)" fill="#A3DAFE"/>
<rect width="78" height="78" transform="matrix(-1 0 0 1 78 792)" fill="#75C8FF"/>
<rect width="78" height="43" transform="matrix(-1 0 0 1 78 749)" fill="#A3DAFE"/>
<rect width="86" height="11.7333" transform="matrix(4.37114e-08 -1 -1 -4.37114e-08 89.7334 792)" fill="#75C8FF"/>
<rect width="86" height="8.53333" transform="matrix(4.37114e-08 -1 -1 -4.37114e-08 98.2666 792)" fill="#90D0FB"/>
<rect width="86" height="8.53333" transform="matrix(4.37114e-08 -1 -1 -4.37114e-08 106.8 792)" fill="#A3DAFE"/>
<rect width="86" height="8.53333" transform="matrix(4.37114e-08 -1 -1 -4.37114e-08 115.333 792)" fill="#C2E7FF"/>
<rect width="86" height="8.53333" transform="matrix(4.37114e-08 -1 -1 -4.37114e-08 123.867 792)" fill="#E0F3FF"/>
<rect width="86" height="8.53333" transform="matrix(4.37114e-08 -1 -1 -4.37114e-08 132.4 792)" fill="#C2E7FF"/>
<rect width="86" height="8.53333" transform="matrix(4.37114e-08 -1 -1 -4.37114e-08 140.933 792)" fill="#A3DAFE"/>
<rect width="86" height="8.53333" transform="matrix(4.37114e-08 -1 -1 -4.37114e-08 149.467 792)" fill="#90D0FB"/>
<rect width="86" height="8.53333" transform="matrix(4.37114e-08 -1 -1 -4.37114e-08 158 792)" fill="#75C8FF"/>
<rect width="78" height="43" transform="matrix(-1 0 0 1 78 706)" fill="#C2E7FF"/>
<rect width="78" height="79" transform="matrix(-1 0 0 1 78 627)" fill="#90D0FB"/>
<rect width="80" height="78" transform="matrix(-1 0 0 1 158 792)" fill="#A3DAFE"/>
<rect width="83" height="78" transform="matrix(-1 0 0 1 241 792)" fill="#C2E7FF"/>
<rect width="40" height="78" transform="matrix(-1 0 0 1 118 870)" fill="#75C8FF"/>
<rect width="40" height="78" transform="matrix(-1 0 0 1 158 870)" fill="#C2E7FF"/>
<path d="M158 870H241L158 948V870Z" fill="#75C8FF"/>
<path d="M158 870H204L158 913V870Z" fill="#A3DAFE"/>
<circle cx="20" cy="20" r="20" transform="matrix(-1 0 0 1 58 566)" fill="#75C8FF"/>
<circle cx="20" cy="20" r="20" transform="matrix(-1 0 0 1 304 810)" fill="#C2E7FF"/>
<circle cx="20" cy="20" r="20" transform="matrix(-1 0 0 1 464 969)" fill="#C2E7FF"/>
</g>
</g>
<defs>
<clipPath id="clip0_1192_1272">
<rect width="720" height="1024" fill="white"/>
</clipPath>
</defs>
</svg>
